<?xml version="1.0"?>
<svg xmlns="http://www.w3.org/2000/svg" width="20" height="20" viewBox="0 0 20 20" fill="none">
    <circle cx="10" cy="10" r="9.5" fill="white" stroke="#777777"/>
    <path d="M9.96967 4.69141C9.59455 4.69141 9.29044 5.0042 9.29044 5.39005V9.34902H5.44144C5.06632 9.34902 4.76221 9.6618 4.76221 10.0477C4.76221 10.4335 5.06632 10.7463 5.44144 10.7463H9.29044V14.7053C9.29044 15.0911 9.59455 15.4039 9.96967 15.4039C10.3448 15.4039 10.6489 15.0911 10.6489 14.7053V10.7463H14.4979C14.873 10.7463 15.1771 10.4335 15.1771 10.0477C15.1771 9.6618 14.873 9.34902 14.4979 9.34902H10.6489V5.39005C10.6489 5.0042 10.3448 4.69141 9.96967 4.69141Z" fill="#777777"/>
</svg>
