<svg width="18" height="18" viewBox="0 0 18 18" fill="none" xmlns="http://www.w3.org/2000/svg">
<circle cx="9" cy="9" r="9" fill="#6A6A6A"/>
<path d="M9 4.11426C8.67584 4.11426 8.41304 4.38456 8.41304 4.71798V8.1391H5.08696C4.7628 8.1391 4.5 8.40939 4.5 8.74283C4.5 9.07625 4.7628 9.34655 5.08696 9.34655H8.41304V12.7677C8.41304 13.1011 8.67584 13.3714 9 13.3714C9.32418 13.3714 9.58696 13.1011 9.58696 12.7677V9.34655H12.913C13.2372 9.34655 13.5 9.07625 13.5 8.74283C13.5 8.40939 13.2372 8.1391 12.913 8.1391H9.58696V4.71798C9.58696 4.38456 9.32418 4.11426 9 4.11426Z" fill="white"/>
</svg>
