<svg width="25" height="24" viewBox="0 0 25 24" fill="none" xmlns="http://www.w3.org/2000/svg">
<g clip-path="url(#clip0)">
<path d="M17.6016 16.0592C17.2824 17.0822 16.779 18.1053 16.0915 19.1283C15.0357 20.7325 13.984 21.5346 12.9364 21.5346C12.5353 21.5346 11.9624 21.4036 11.2176 21.1417C10.5138 20.8798 9.89583 20.7489 9.36384 20.7489C8.86458 20.7489 8.28348 20.8839 7.62054 21.154C6.95759 21.4323 6.41741 21.5714 6 21.5714C4.75595 21.5714 3.52418 20.5115 2.30469 18.3917C1.10156 16.2556 0.5 14.1972 0.5 12.2165C0.5 10.3504 0.962426 8.81994 1.88728 7.625C2.81213 6.44643 3.97433 5.85714 5.37388 5.85714C5.96317 5.85714 6.6875 5.97991 7.54688 6.22545C8.39807 6.47098 8.9628 6.59375 9.24107 6.59375C9.60938 6.59375 10.1946 6.45461 10.9967 6.17634C11.8315 5.89806 12.5394 5.75893 13.1205 5.75893C14.0945 5.75893 14.9661 6.02493 15.7355 6.55692C16.1611 6.85156 16.5867 7.26079 17.0123 7.7846C16.3657 8.33296 15.8992 8.81585 15.6127 9.23326C15.0807 10.0026 14.8147 10.8497 14.8147 11.7746C14.8147 12.7894 15.0971 13.702 15.6618 14.5123C16.2266 15.3225 16.8731 15.8382 17.6016 16.0592ZM12.9855 1.65848C12.9855 2.15774 12.8668 2.71428 12.6295 3.32812C12.3839 3.94196 12.0033 4.5067 11.4877 5.02232C11.0458 5.46428 10.6038 5.75893 10.1618 5.90625C9.859 5.99628 9.43341 6.06585 8.88505 6.11495C8.9096 4.89546 9.2288 3.84375 9.84263 2.95982C10.4483 2.08408 11.4714 1.47842 12.9118 1.14286C12.92 1.16741 12.9282 1.21242 12.9364 1.2779C12.9528 1.34338 12.965 1.38839 12.9732 1.41295C12.9732 1.44568 12.9732 1.48661 12.9732 1.53571C12.9814 1.58482 12.9855 1.62574 12.9855 1.65848Z" fill="white"/>
</g>
<defs>
<clipPath id="clip0">
<rect width="24" height="24" fill="white" transform="translate(0.5)"/>
</clipPath>
</defs>
</svg>
