<svg width="25" height="25" viewBox="0 0 25 25" fill="none" xmlns="http://www.w3.org/2000/svg">
<path d="M6.03938 6.1032C5.60434 6.53824 5.6144 7.25371 6.06189 7.70119L10.6533 12.2926L6.18943 16.7565C5.75438 17.1916 5.76443 17.907 6.21193 18.3545C6.65941 18.802 7.37488 18.8121 7.80993 18.377L12.2738 13.9131L16.8652 18.5046C17.3127 18.952 18.0282 18.9621 18.4632 18.5271C18.8983 18.092 18.8882 17.3765 18.4407 16.9291L13.8493 12.3376L18.3132 7.87375C18.7482 7.4387 18.7382 6.72322 18.2907 6.27575C17.8432 5.82825 17.1277 5.8182 16.6927 6.25324L12.2288 10.7171L7.63738 6.1257C7.18989 5.67822 6.47445 5.66813 6.03938 6.1032Z" fill="black"/>
</svg>
