<?xml version="1.0"?>
<svg xmlns="http://www.w3.org/2000/svg" width="20" height="20" viewBox="0 0 20 20" fill="none">
    <path d="M18.9286 2.14286H16.4286V0.714286C16.4286 0.482143 16.3143 0.275 16.1429 0.142857C16.0214 0.0535715 15.875 0 15.7143 0C15.3214 0 15 0.321429 15 0.714286V2.14286H10.7143V0.714286C10.7143 0.321429 10.3929 0 10 0C9.60714 0 9.28571 0.321429 9.28571 0.714286V2.14286H5V0.714286C5 0.321429 4.67857 0 4.28571 0C4.125 0 3.97857 0.0535715 3.85714 0.142857C3.68571 0.275 3.57143 0.482143 3.57143 0.714286V2.14286H1.07143C0.482143 2.14286 0 2.625 0 3.21429V18.9286C0 19.5179 0.482143 20 1.07143 20H18.9286C19.5179 20 20 19.5179 20 18.9286V3.21429C20 2.625 19.5179 2.14286 18.9286 2.14286ZM18.5714 18.2143C18.5714 18.4107 18.4107 18.5714 18.2143 18.5714H1.78571C1.58929 18.5714 1.42857 18.4107 1.42857 18.2143V6.78571C1.42857 6.58929 1.58929 6.42857 1.78571 6.42857H18.2143C18.4107 6.42857 18.5714 6.58929 18.5714 6.78571V18.2143Z" fill="#8A8A8A"/>
    <path d="M11.4282 8.21387H8.57101C8.37458 8.21387 8.21387 8.37458 8.21387 8.57101V11.4282C8.21387 11.6246 8.37458 11.7853 8.57101 11.7853H11.4282C11.6246 11.7853 11.7853 11.6246 11.7853 11.4282V8.57101C11.7853 8.37458 11.6246 8.21387 11.4282 8.21387Z" fill="#8A8A8A"/>
    <path d="M6.42815 8.21387H3.57101C3.37458 8.21387 3.21387 8.37458 3.21387 8.57101V11.4282C3.21387 11.6246 3.37458 11.7853 3.57101 11.7853H6.42815C6.62458 11.7853 6.7853 11.6246 6.7853 11.4282V8.57101C6.7853 8.37458 6.62458 8.21387 6.42815 8.21387Z" fill="#8A8A8A"/>
    <path d="M16.4282 8.21387H13.571C13.3746 8.21387 13.2139 8.37458 13.2139 8.57101V11.4282C13.2139 11.6246 13.3746 11.7853 13.571 11.7853H16.4282C16.6246 11.7853 16.7853 11.6246 16.7853 11.4282V8.57101C16.7853 8.37458 16.6246 8.21387 16.4282 8.21387Z" fill="#8A8A8A"/>
    <path d="M11.4282 13.2139H8.57101C8.37458 13.2139 8.21387 13.3746 8.21387 13.571V16.4282C8.21387 16.6246 8.37458 16.7853 8.57101 16.7853H11.4282C11.6246 16.7853 11.7853 16.6246 11.7853 16.4282V13.571C11.7853 13.3746 11.6246 13.2139 11.4282 13.2139Z" fill="#8A8A8A"/>
    <path d="M6.42815 13.2139H3.57101C3.37458 13.2139 3.21387 13.3746 3.21387 13.571V16.4282C3.21387 16.6246 3.37458 16.7853 3.57101 16.7853H6.42815C6.62458 16.7853 6.7853 16.6246 6.7853 16.4282V13.571C6.7853 13.3746 6.62458 13.2139 6.42815 13.2139Z" fill="#8A8A8A"/>
    <path d="M16.4282 13.2139H13.571C13.3746 13.2139 13.2139 13.3746 13.2139 13.571V16.4282C13.2139 16.6246 13.3746 16.7853 13.571 16.7853H16.4282C16.6246 16.7853 16.7853 16.6246 16.7853 16.4282V13.571C16.7853 13.3746 16.6246 13.2139 16.4282 13.2139Z" fill="#8A8A8A"/>
</svg>
