<?xml version="1.0"?>
<svg xmlns="http://www.w3.org/2000/svg" width="26" height="27" viewBox="0 0 26 27">
    <path d="M25.9794 13.0153C25.9836 10.868 25.4555 8.7531 24.4421 6.85989C23.4288 4.96667 21.9619 3.3542 20.1728 2.16676C18.3836 0.979321 16.328 0.253952 14.1898 0.0555604C12.0517 -0.142831 9.89766 0.191945 7.92057 1.02993C5.94348 1.86792 4.20498 3.18297 2.86062 4.85743C1.51626 6.53188 0.607984 8.5135 0.217064 10.625C-0.173856 12.7364 -0.0352253 14.9119 0.620552 16.9566C1.27633 19.0014 2.4288 20.8517 3.97483 22.342L4.16967 22.5108C5.0523 23.3264 6.03952 24.021 7.10535 24.5762L7.52102 24.771L8.13153 25.0568L8.96287 25.3556L9.24865 25.4465C9.58638 25.5504 9.9371 25.6413 10.2878 25.7193H10.4437C10.8042 25.7946 11.1684 25.8509 11.5348 25.8881L11.6907 26.0051C12.1064 26.0051 12.535 26.07 12.9897 26.07C13.4443 26.07 13.847 26.07 14.2887 26.0051H14.4965C14.8653 25.9415 15.2297 25.8547 15.5876 25.7453H15.8474C16.1592 25.6673 16.4709 25.6024 16.7827 25.4985C17.0944 25.3945 17.0814 25.3945 17.2373 25.3426C17.3932 25.2906 17.679 25.1997 17.8998 25.1088L18.7052 24.7451L18.939 24.6281C19.9749 24.0944 20.9358 23.4261 21.7967 22.6407L22.0695 22.4069C23.3196 21.1851 24.3102 19.7235 24.9821 18.1098C25.6539 16.496 25.9931 14.7633 25.9794 13.0153ZM2.59792 13.0153C2.59311 11.3576 2.98498 9.7227 3.74081 8.24724C4.49665 6.77179 5.59451 5.49858 6.94272 4.53393C8.29094 3.56927 9.85037 2.94117 11.4908 2.70206C13.1313 2.46296 14.8051 2.61979 16.3726 3.15947C17.9401 3.69915 19.3557 4.60601 20.5012 5.80432C21.6468 7.00264 22.489 8.45763 22.9576 10.0478C23.4262 11.638 23.5076 13.3172 23.1949 14.9452C22.8822 16.5732 22.1846 18.1028 21.1602 19.4063C20.6201 18.3172 19.8687 17.3463 18.95 16.5502C18.0312 15.7541 16.9633 15.1486 15.8085 14.769C16.7507 14.1605 17.4707 13.2634 17.861 12.2118C18.2512 11.1602 18.2907 10.0106 17.9735 8.93476C17.6563 7.8589 16.9995 6.91456 16.1012 6.24288C15.2029 5.5712 14.1113 5.20824 12.9897 5.20824C11.868 5.20824 10.7765 5.5712 9.87821 6.24288C8.97991 6.91456 8.32309 7.8589 8.00589 8.93476C7.6887 10.0106 7.72817 11.1602 8.1184 12.2118C8.50863 13.2634 9.22867 14.1605 10.1709 14.769C9.01527 15.1477 7.94734 15.7544 7.03032 16.5531C6.1133 17.3519 5.36583 18.3265 4.83215 19.4193C3.38402 17.5991 2.59634 15.3413 2.59792 13.0153Z" fill="#7E7E7E"/>
</svg>
