<svg width="25" height="25" viewBox="0 0 25 25" fill="none" xmlns="http://www.w3.org/2000/svg">
<circle cx="12.5" cy="12.5" r="12" fill="white" stroke="#777777"/>
<path d="M7.00818 7.00842C6.64742 7.36918 6.65577 7.96248 7.02685 8.33356L10.8343 12.141L7.13261 15.8427C6.77185 16.2035 6.78018 16.7968 7.15127 17.1679C7.52234 17.5389 8.11566 17.5473 8.47642 17.1865L12.1781 13.4848L15.9856 17.2923C16.3567 17.6634 16.95 17.6717 17.3107 17.311C17.6715 16.9502 17.6631 16.3569 17.2921 15.9858L13.4846 12.1784L17.1863 8.47665C17.5471 8.11589 17.5387 7.52258 17.1676 7.15151C16.7965 6.78041 16.2033 6.77208 15.8425 7.13284L12.1408 10.8345L8.33333 7.02708C7.96225 6.656 7.36897 6.64763 7.00818 7.00842Z" fill="#777777"/>
</svg>
