<svg width="25" height="25" viewBox="0 0 25 25" fill="none" xmlns="http://www.w3.org/2000/svg">
<circle cx="12.5" cy="12.5" r="12" fill="white" stroke="#777777"/>
<path d="M10.4725 7.35011C10.473 7.20674 10.5301 7.06938 10.6315 6.968C10.7329 6.86663 10.8702 6.80947 11.0136 6.80901H13.5041C13.6476 6.80901 13.7852 6.86602 13.8867 6.96749C13.9882 7.06897 14.0452 7.2066 14.0452 7.35011V7.70262H14.856V7.35011C14.855 6.99202 14.7122 6.64889 14.4589 6.39584C14.2055 6.1428 13.8622 6.00047 13.5041 6H11.0136C10.6552 6.00047 10.3116 6.14304 10.0582 6.39647C9.80479 6.64989 9.66221 6.99347 9.66174 7.35187V7.70438H10.4725V7.35011Z" fill="#777777"/>
<path d="M17.0994 7.6377H7.40538C7.29787 7.6377 7.19476 7.68041 7.11873 7.75643C7.04271 7.83245 7 7.93557 7 8.04308C7 8.15059 7.04271 8.25371 7.11873 8.32973C7.19476 8.40575 7.29787 8.44846 7.40538 8.44846H7.89713C7.89713 8.46961 7.89713 8.49077 7.89713 8.51368V16.5244C7.8976 17.0245 8.09644 17.5039 8.45002 17.8575C8.8036 18.211 9.28302 18.4099 9.78305 18.4104H14.7323C15.2323 18.4099 15.7117 18.211 16.0653 17.8575C16.4189 17.5039 16.6177 17.0245 16.6182 16.5244V8.51368C16.6182 8.49077 16.6182 8.46961 16.6182 8.44846H17.0994C17.2069 8.44846 17.31 8.40575 17.386 8.32973C17.462 8.25371 17.5048 8.15059 17.5048 8.04308C17.5048 7.93557 17.462 7.83245 17.386 7.75643C17.31 7.68041 17.2069 7.6377 17.0994 7.6377ZM15.8074 16.5244C15.8074 16.8096 15.6941 17.083 15.4925 17.2847C15.2909 17.4863 15.0174 17.5996 14.7323 17.5996H9.78482C9.49967 17.5996 9.2262 17.4863 9.02457 17.2847C8.82294 17.083 8.70967 16.8096 8.70967 16.5244V8.51368H15.8074V16.5244Z" fill="#777777"/>
<path d="M12.2599 9.74219C12.1524 9.74219 12.0493 9.7849 11.9732 9.86092C11.8972 9.93695 11.8545 10.0401 11.8545 10.1476V15.964C11.8545 16.0715 11.8972 16.1746 11.9732 16.2506C12.0493 16.3266 12.1524 16.3693 12.2599 16.3693C12.3674 16.3693 12.4705 16.3266 12.5465 16.2506C12.6226 16.1746 12.6653 16.0715 12.6653 15.964V10.1476C12.6653 10.0943 12.6548 10.0416 12.6344 9.99244C12.614 9.94326 12.5842 9.89857 12.5465 9.86092C12.5089 9.82328 12.4642 9.79342 12.415 9.77305C12.3658 9.75267 12.3131 9.74219 12.2599 9.74219Z" fill="#777777"/>
<path d="M14.227 9.74219C14.1195 9.74219 14.0164 9.7849 13.9404 9.86092C13.8644 9.93695 13.8217 10.0401 13.8217 10.1476V15.964C13.8217 16.0715 13.8644 16.1746 13.9404 16.2506C14.0164 16.3266 14.1195 16.3693 14.227 16.3693C14.3346 16.3693 14.4377 16.3266 14.5137 16.2506C14.5897 16.1746 14.6324 16.0715 14.6324 15.964V10.1476C14.6324 10.0943 14.6219 10.0416 14.6016 9.99244C14.5812 9.94326 14.5513 9.89857 14.5137 9.86092C14.476 9.82328 14.4314 9.79342 14.3822 9.77305C14.333 9.75267 14.2803 9.74219 14.227 9.74219Z" fill="#777777"/>
<path d="M10.2912 9.74219C10.1837 9.74219 10.0806 9.7849 10.0046 9.86092C9.92857 9.93695 9.88586 10.0401 9.88586 10.1476V15.964C9.88586 16.0715 9.92857 16.1746 10.0046 16.2506C10.0806 16.3266 10.1837 16.3693 10.2912 16.3693C10.3988 16.3693 10.5019 16.3266 10.5779 16.2506C10.6539 16.1746 10.6966 16.0715 10.6966 15.964V10.1476C10.6966 10.0943 10.6861 10.0416 10.6658 9.99244C10.6454 9.94326 10.6155 9.89857 10.5779 9.86092C10.5403 9.82328 10.4956 9.79342 10.4464 9.77305C10.3972 9.75267 10.3445 9.74219 10.2912 9.74219Z" fill="#777777"/>
</svg>
