<svg width="11" height="11" viewBox="0 0 11 11" fill="none" xmlns="http://www.w3.org/2000/svg">
<g clip-path="url(#clip0)">
<path d="M6.50778 5.09989L10.791 1.13519C11.0697 0.877304 11.0697 0.460336 10.791 0.202449C10.5124 -0.0554386 10.0619 -0.0554386 9.78327 0.202449L5.49995 4.16715L1.21676 0.202449C0.938016 -0.0554386 0.487669 -0.0554386 0.209057 0.202449C-0.0696857 0.460336 -0.0696857 0.877304 0.209057 1.13519L4.49225 5.09989L0.209057 9.06459C-0.0696857 9.32248 -0.0696857 9.73945 0.209057 9.99734C0.347906 10.126 0.530472 10.1906 0.712908 10.1906C0.895343 10.1906 1.07778 10.126 1.21676 9.99734L5.49995 6.03263L9.78327 9.99734C9.92225 10.126 10.1047 10.1906 10.2871 10.1906C10.4696 10.1906 10.652 10.126 10.791 9.99734C11.0697 9.73945 11.0697 9.32248 10.791 9.06459L6.50778 5.09989Z" fill="#999999"/>
</g>
<defs>
<clipPath id="clip0">
<rect width="11" height="10.1818" fill="white"/>
</clipPath>
</defs>
</svg>
