<svg width="19" height="22" viewBox="0 0 19 22"  xmlns="http://www.w3.org/2000/svg">
<path d="M5.99092 2.32923C5.99172 2.0819 6.09033 1.84492 6.26523 1.67002C6.44012 1.49513 6.6771 1.39652 6.92444 1.39572H11.2211C11.4686 1.39572 11.7061 1.49407 11.8811 1.66914C12.0562 1.84421 12.1546 2.08165 12.1546 2.32923V2.93739H13.5533V2.32923C13.5517 1.71145 13.3054 1.11947 12.8683 0.682919C12.4311 0.246364 11.8388 0.000802315 11.2211 0H6.92444C6.30613 0.000804569 5.71337 0.246784 5.27616 0.683996C4.83895 1.12121 4.59297 1.71396 4.59216 2.33227V2.94043H5.99092V2.32923Z" fill="white"/>
<path d="M17.4236 2.8252H0.699378C0.513892 2.8252 0.336002 2.89888 0.204843 3.03004C0.0736844 3.1612 0 3.33909 0 3.52457C0 3.71006 0.0736844 3.88795 0.204843 4.01911C0.336002 4.15027 0.513892 4.22395 0.699378 4.22395H1.54776C1.54776 4.26044 1.54776 4.29693 1.54776 4.33646V18.1568C1.54856 19.0194 1.89161 19.8466 2.50161 20.4566C3.11161 21.0666 3.93872 21.4096 4.80139 21.4104H13.3399C14.2026 21.4096 15.0297 21.0666 15.6397 20.4566C16.2497 19.8466 16.5927 19.0194 16.5935 18.1568V4.33646C16.5935 4.29693 16.5935 4.26044 16.5935 4.22395H17.4236C17.6091 4.22395 17.787 4.15027 17.9182 4.01911C18.0493 3.88795 18.123 3.71006 18.123 3.52457C18.123 3.33909 18.0493 3.1612 17.9182 3.03004C17.787 2.89888 17.6091 2.8252 17.4236 2.8252ZM15.1948 18.1568C15.1948 18.6487 14.9993 19.1205 14.6515 19.4684C14.3036 19.8162 13.8318 20.0117 13.3399 20.0117H4.80443C4.31248 20.0117 3.84069 19.8162 3.49283 19.4684C3.14498 19.1205 2.94955 18.6487 2.94955 18.1568V4.33646H15.1948V18.1568Z" fill="white"/>
<path d="M9.07389 6.45508C8.8884 6.45508 8.71051 6.52876 8.57935 6.65992C8.4482 6.79108 8.37451 6.96897 8.37451 7.15446V17.189C8.37451 17.3745 8.4482 17.5524 8.57935 17.6836C8.71051 17.8147 8.8884 17.8884 9.07389 17.8884C9.25938 17.8884 9.43727 17.8147 9.56843 17.6836C9.69958 17.5524 9.77327 17.3745 9.77327 17.189V7.15446C9.77327 7.06261 9.75518 6.97167 9.72003 6.88682C9.68488 6.80196 9.63337 6.72487 9.56843 6.65992C9.50348 6.59498 9.42638 6.54346 9.34153 6.50832C9.25668 6.47317 9.16573 6.45508 9.07389 6.45508Z" fill="white"/>
<path d="M12.4678 6.45508C12.2823 6.45508 12.1044 6.52876 11.9733 6.65992C11.8421 6.79108 11.7684 6.96897 11.7684 7.15446V17.189C11.7684 17.3745 11.8421 17.5524 11.9733 17.6836C12.1044 17.8147 12.2823 17.8884 12.4678 17.8884C12.6533 17.8884 12.8312 17.8147 12.9623 17.6836C13.0935 17.5524 13.1672 17.3745 13.1672 17.189V7.15446C13.1672 7.06261 13.1491 6.97167 13.114 6.88682C13.0788 6.80196 13.0273 6.72487 12.9623 6.65992C12.8974 6.59498 12.8203 6.54346 12.7355 6.50832C12.6506 6.47317 12.5597 6.45508 12.4678 6.45508Z" fill="white"/>
<path d="M5.67777 6.45508C5.49229 6.45508 5.3144 6.52876 5.18324 6.65992C5.05208 6.79108 4.97839 6.96897 4.97839 7.15446V17.189C4.97839 17.3745 5.05208 17.5524 5.18324 17.6836C5.3144 17.8147 5.49229 17.8884 5.67777 17.8884C5.86326 17.8884 6.04115 17.8147 6.17231 17.6836C6.30347 17.5524 6.37715 17.3745 6.37715 17.189V7.15446C6.37715 7.06261 6.35906 6.97167 6.32391 6.88682C6.28877 6.80196 6.23725 6.72487 6.17231 6.65992C6.10736 6.59498 6.03026 6.54346 5.94541 6.50832C5.86056 6.47317 5.76962 6.45508 5.67777 6.45508Z" fill="white"/>
</svg>
