<svg width="23" height="22" viewBox="0 0 23 22"  xmlns="http://www.w3.org/2000/svg">
    <path d="M0.431475 12.5246C0.431475 13.2099 0.566458 13.8885 0.828716 14.5216C1.09097 15.1548 1.47537 15.7301 1.95996 16.2147C2.44455 16.6993 3.01984 17.0837 3.65299 17.3459C4.28613 17.6082 4.96474 17.7432 5.65005 17.7432H8.72901C8.86741 17.7432 9.00015 17.6882 9.09802 17.5903C9.19588 17.4924 9.25087 17.3597 9.25087 17.2213C9.25087 17.0829 9.19588 16.9502 9.09802 16.8523C9.00015 16.7544 8.86741 16.6994 8.72901 16.6994H5.65005C4.54281 16.6994 3.48092 16.2596 2.69798 15.4767C1.91504 14.6937 1.47519 13.6318 1.47519 12.5246C1.47519 11.4173 1.91504 10.3554 2.69798 9.57251C3.48092 8.78957 4.54281 8.34972 5.65005 8.34972C5.80991 8.33901 5.9703 8.33901 6.13016 8.34972C6.20532 8.35679 6.28114 8.3484 6.35294 8.32507C6.42474 8.30173 6.491 8.26395 6.54764 8.21404C6.59649 8.16265 6.63458 8.10201 6.65967 8.0357C6.68477 7.96938 6.69636 7.89872 6.69376 7.82786C6.69376 7.62956 6.69376 7.473 6.69376 7.30601C6.69376 5.64514 7.35354 4.05231 8.52795 2.8779C9.70235 1.70349 11.2952 1.04372 12.9561 1.04372C14.6169 1.04372 16.2098 1.70349 17.3842 2.8779C18.5586 4.05231 19.2183 5.64514 19.2183 7.30601C19.2194 7.69112 19.1845 8.07549 19.114 8.45409C19.0933 8.55678 19.1054 8.66335 19.1484 8.75883C19.1915 8.85431 19.2634 8.93389 19.354 8.98639C20.1225 9.46771 20.7134 10.1862 21.0374 11.0331C21.3614 11.8801 21.4007 12.8095 21.1496 13.6808C20.8985 14.5522 20.3704 15.318 19.6454 15.8626C18.9204 16.4073 18.0377 16.701 17.1309 16.6994H14.0728C13.9344 16.6994 13.8017 16.7544 13.7038 16.8523C13.606 16.9502 13.551 17.0829 13.551 17.2213C13.551 17.3597 13.606 17.4924 13.7038 17.5903C13.8017 17.6882 13.9344 17.7432 14.0728 17.7432H17.1309C18.22 17.7281 19.277 17.3726 20.1539 16.7265C21.0308 16.0805 21.6836 15.1762 22.0208 14.1406C22.3579 13.1049 22.3626 11.9897 22.0341 10.9512C21.7056 9.91275 21.0604 9.00309 20.189 8.34972C20.2417 8.00438 20.2661 7.65532 20.2621 7.30601C20.2621 5.36833 19.4923 3.51002 18.1222 2.13988C16.752 0.769738 14.8937 0 12.9561 0C11.0184 0 9.16007 0.769738 7.78993 2.13988C6.41979 3.51002 5.65005 5.36833 5.65005 7.30601C4.96474 7.30601 4.28613 7.44099 3.65299 7.70325C3.01984 7.9655 2.44455 8.3499 1.95996 8.83449C1.47537 9.31908 1.09097 9.89437 0.828716 10.5275C0.566458 11.1607 0.431475 11.8393 0.431475 12.5246ZM9.66835 18.9434L10.8686 20.1333V12.0027C10.8686 11.8643 10.9236 11.7316 11.0215 11.6337C11.1193 11.5358 11.2521 11.4809 11.3905 11.4809C11.5289 11.4809 11.6616 11.5358 11.7595 11.6337C11.8574 11.7316 11.9123 11.8643 11.9123 12.0027V20.1333L13.1126 18.9434C13.1606 18.8955 13.2175 18.8574 13.2802 18.8314C13.3429 18.8055 13.4101 18.7921 13.4779 18.7921C13.5458 18.7921 13.6129 18.8055 13.6756 18.8314C13.7383 18.8574 13.7952 18.8955 13.8432 18.9434C13.8912 18.9914 13.9292 19.0484 13.9552 19.111C13.9812 19.1737 13.9945 19.2409 13.9945 19.3087C13.9945 19.3766 13.9812 19.4438 13.9552 19.5064C13.9292 19.5691 13.8912 19.6261 13.8432 19.674L11.7558 21.7615C11.7117 21.8143 11.6539 21.854 11.5888 21.8763C11.5263 21.9039 11.4588 21.9181 11.3905 21.9181C11.3222 21.9181 11.2546 21.9039 11.1922 21.8763C11.127 21.854 11.0693 21.8143 11.0252 21.7615L8.93775 19.674C8.88978 19.6261 8.85173 19.5691 8.82576 19.5064C8.7998 19.4438 8.78644 19.3766 8.78644 19.3087C8.78644 19.2409 8.7998 19.1737 8.82576 19.111C8.85173 19.0484 8.88978 18.9914 8.93775 18.9434C8.98572 18.8955 9.04267 18.8574 9.10535 18.8314C9.16803 18.8055 9.23521 18.7921 9.30305 18.7921C9.37089 18.7921 9.43807 18.8055 9.50075 18.8314C9.56343 18.8574 9.62038 18.8955 9.66835 18.9434Z" fill="#959595"/>
</svg>
