<svg width="16" height="16" viewBox="0 0 16 16" fill="none" xmlns="http://www.w3.org/2000/svg">
<g clip-path="url(#clip0)">
<path d="M14.8571 10.2857C14.5415 10.2857 14.2856 10.5415 14.2856 10.8571V14.2857C14.2856 14.6013 14.0298 14.8572 13.7142 14.8572H2.28567C1.97007 14.8572 1.71423 14.6013 1.71423 14.2857V10.8571C1.71423 10.5415 1.45839 10.2857 1.14279 10.2857C0.827187 10.2857 0.57135 10.5415 0.57135 10.8571V14.2857C0.57135 15.2325 1.33886 16 2.28563 16H13.7142C14.661 16 15.4285 15.2325 15.4285 14.2857V10.8571C15.4285 10.5415 15.1727 10.2857 14.8571 10.2857Z" fill="#595959"/>
<path d="M11.2482 9.88171C11.0268 9.66786 10.6757 9.66786 10.4543 9.88171L8.57145 11.7634V0.571439C8.57145 0.255837 8.31561 0 8.00001 0C7.6844 0 7.42857 0.255837 7.42857 0.571439V11.7634L5.54683 9.88171C5.31983 9.66247 4.95808 9.66877 4.73884 9.89574C4.52496 10.1172 4.52496 10.4683 4.73884 10.6897L7.59598 13.5468C7.81887 13.7703 8.18068 13.7707 8.4041 13.5479C8.40444 13.5475 8.40477 13.5472 8.40514 13.5468L11.2623 10.6897C11.4815 10.4627 11.4753 10.101 11.2482 9.88171Z" fill="#595959"/>
</g>
<defs>
<clipPath id="clip0">
<rect width="16" height="16" fill="white"/>
</clipPath>
</defs>
</svg>
