<svg width="20" height="22" viewBox="0 0 20 22" fill="none" xmlns="http://www.w3.org/2000/svg">
<path d="M19.6912 0.495C19.5262 0.187 19.2072 0 18.8662 0H0.936158C0.595158 0 0.276158 0.187 0.111158 0.495C-0.0538421 0.803 -0.0318421 1.166 0.155158 1.452L6.71116 11.264V21.065C6.71116 21.428 6.92016 21.769 7.26116 21.912C7.39316 21.967 7.52516 22 7.65716 22C7.87716 22 8.09716 21.923 8.27316 21.769L12.7722 17.864C12.9812 17.688 13.0912 17.424 13.0912 17.16V11.275L19.6472 1.463C19.8342 1.166 19.8562 0.803 19.6912 0.495ZM11.3752 10.461C11.2762 10.615 11.2212 10.791 11.2212 10.978V16.72L8.59216 19.008V10.978C8.59216 10.791 8.53716 10.615 8.43816 10.461L2.68516 1.87H17.1172L11.3752 10.461Z" fill="#1F1F1F"/>
</svg>
