<svg width="20" height="19" viewBox="0 0 20 19" fill="none" xmlns="http://www.w3.org/2000/svg">
<path d="M11.595 7.1543H7.77338V11.0208H11.595V7.1543Z" fill="#A8A8A8"/>
<path d="M11.595 10.7981C10.3211 10.7981 9.04722 10.7981 7.77335 10.7981C7.8496 10.8744 7.92137 10.9461 7.99762 11.0224C7.99762 9.89654 7.99762 8.77068 7.99762 7.64932C7.99762 7.48335 7.99762 7.32188 7.99762 7.15591C7.92137 7.23217 7.8496 7.30393 7.77335 7.38019C9.04722 7.38019 10.3211 7.38019 11.595 7.38019C11.5187 7.30393 11.4469 7.23217 11.3707 7.15591C11.3707 8.28177 11.3707 9.40762 11.3707 10.529C11.3707 10.695 11.3707 10.8564 11.3707 11.0224C11.3707 11.3095 11.8192 11.3095 11.8192 11.0224C11.8192 9.89654 11.8192 8.77068 11.8192 7.64932C11.8192 7.48335 11.8192 7.32188 11.8192 7.15591C11.8192 7.03481 11.7161 6.93164 11.595 6.93164C10.3211 6.93164 9.04722 6.93164 7.77335 6.93164C7.65224 6.93164 7.54907 7.03481 7.54907 7.15591C7.54907 8.28177 7.54907 9.40762 7.54907 10.529C7.54907 10.695 7.54907 10.8564 7.54907 11.0224C7.54907 11.1435 7.65224 11.2467 7.77335 11.2467C9.04722 11.2467 10.3211 11.2467 11.595 11.2467C11.882 11.2467 11.882 10.7981 11.595 10.7981Z" fill="#A8A8A8"/>
<path d="M4.04592 7.1543H0.224304V11.0208H4.04592V7.1543Z" fill="#A8A8A8"/>
<path d="M4.04589 10.7981C2.77202 10.7981 1.49815 10.7981 0.224273 10.7981C0.300526 10.8744 0.372294 10.9461 0.448547 11.0224C0.448547 9.89654 0.448547 8.77068 0.448547 7.64932C0.448547 7.48335 0.448547 7.32188 0.448547 7.15591C0.372294 7.23217 0.300526 7.30393 0.224273 7.38019C1.49815 7.38019 2.77202 7.38019 4.04589 7.38019C3.96964 7.30393 3.89787 7.23217 3.82162 7.15591C3.82162 8.28177 3.82162 9.40762 3.82162 10.529C3.82162 10.695 3.82162 10.8564 3.82162 11.0224C3.82162 11.3095 4.27016 11.3095 4.27016 11.0224C4.27016 9.89654 4.27016 8.77068 4.27016 7.64932C4.27016 7.48335 4.27016 7.32188 4.27016 7.15591C4.27016 7.03481 4.167 6.93164 4.04589 6.93164C2.77202 6.93164 1.49815 6.93164 0.224273 6.93164C0.103166 6.93164 0 7.03481 0 7.15591C0 8.28177 0 9.40762 0 10.529C0 10.695 0 10.8564 0 11.0224C0 11.1435 0.103166 11.2467 0.224273 11.2467C1.49815 11.2467 2.77202 11.2467 4.04589 11.2467C4.33296 11.2467 4.33296 10.7981 4.04589 10.7981Z" fill="#A8A8A8"/>
<path d="M19.1439 7.1543H15.3223V11.0208H19.1439V7.1543Z" fill="#A8A8A8"/>
<path d="M19.144 10.7981C17.8701 10.7981 16.5962 10.7981 15.3224 10.7981C15.3986 10.8744 15.4704 10.9461 15.5466 11.0224C15.5466 9.89654 15.5466 8.77068 15.5466 7.64932C15.5466 7.48335 15.5466 7.32188 15.5466 7.15591C15.4704 7.23217 15.3986 7.30393 15.3224 7.38019C16.5962 7.38019 17.8701 7.38019 19.144 7.38019C19.0677 7.30393 18.996 7.23217 18.9197 7.15591C18.9197 8.28177 18.9197 9.40762 18.9197 10.529C18.9197 10.695 18.9197 10.8564 18.9197 11.0224C18.9197 11.3095 19.3683 11.3095 19.3683 11.0224C19.3683 9.89654 19.3683 8.77068 19.3683 7.64932C19.3683 7.48335 19.3683 7.32188 19.3683 7.15591C19.3683 7.03481 19.2651 6.93164 19.144 6.93164C17.8701 6.93164 16.5962 6.93164 15.3224 6.93164C15.2012 6.93164 15.0981 7.03481 15.0981 7.15591C15.0981 8.28177 15.0981 9.40762 15.0981 10.529C15.0981 10.695 15.0981 10.8564 15.0981 11.0224C15.0981 11.1435 15.2012 11.2467 15.3224 11.2467C16.5962 11.2467 17.8701 11.2467 19.144 11.2467C19.4311 11.2467 19.4311 10.7981 19.144 10.7981Z" fill="#A8A8A8"/>
<path d="M11.595 0.230469H7.77338V4.09694H11.595V0.230469Z" fill="#A8A8A8"/>
<path d="M11.595 3.86647C10.3211 3.86647 9.04722 3.86647 7.77335 3.86647C7.8496 3.94272 7.92137 4.01449 7.99762 4.09074C7.99762 2.96489 7.99762 1.83904 7.99762 0.717674C7.99762 0.551712 7.99762 0.390235 7.99762 0.224273C7.92137 0.300526 7.8496 0.372294 7.77335 0.448546C9.04722 0.448546 10.3211 0.448546 11.595 0.448546C11.5187 0.372294 11.4469 0.300526 11.3707 0.224273C11.3707 1.35012 11.3707 2.47598 11.3707 3.59734C11.3707 3.7633 11.3707 3.92478 11.3707 4.09074C11.3707 4.37781 11.8192 4.37781 11.8192 4.09074C11.8192 2.96489 11.8192 1.83904 11.8192 0.717674C11.8192 0.551712 11.8192 0.390235 11.8192 0.224273C11.8192 0.103166 11.7161 0 11.595 0C10.3211 0 9.04722 0 7.77335 0C7.65224 0 7.54907 0.103166 7.54907 0.224273C7.54907 1.35012 7.54907 2.47598 7.54907 3.59734C7.54907 3.7633 7.54907 3.92478 7.54907 4.09074C7.54907 4.21185 7.65224 4.31502 7.77335 4.31502C9.04722 4.31502 10.3211 4.31502 11.595 4.31502C11.882 4.31502 11.882 3.86647 11.595 3.86647Z" fill="#A8A8A8"/>
<path d="M4.04592 0.230469H0.224304V4.09694H4.04592V0.230469Z" fill="#A8A8A8"/>
<path d="M4.04589 3.86647C2.77202 3.86647 1.49815 3.86647 0.224273 3.86647C0.300526 3.94272 0.372294 4.01449 0.448547 4.09074C0.448547 2.96489 0.448547 1.83904 0.448547 0.717674C0.448547 0.551712 0.448547 0.390235 0.448547 0.224273C0.372294 0.300526 0.300526 0.372294 0.224273 0.448546C1.49815 0.448546 2.77202 0.448546 4.04589 0.448546C3.96964 0.372294 3.89787 0.300526 3.82162 0.224273C3.82162 1.35012 3.82162 2.47598 3.82162 3.59734C3.82162 3.7633 3.82162 3.92478 3.82162 4.09074C3.82162 4.37781 4.27016 4.37781 4.27016 4.09074C4.27016 2.96489 4.27016 1.83904 4.27016 0.717674C4.27016 0.551712 4.27016 0.390235 4.27016 0.224273C4.27016 0.103166 4.167 0 4.04589 0C2.77202 0 1.49815 0 0.224273 0C0.103166 0 0 0.103166 0 0.224273C0 1.35012 0 2.47598 0 3.59734C0 3.7633 0 3.92478 0 4.09074C0 4.21185 0.103166 4.31502 0.224273 4.31502C1.49815 4.31502 2.77202 4.31502 4.04589 4.31502C4.33296 4.31502 4.33296 3.86647 4.04589 3.86647Z" fill="#A8A8A8"/>
<path d="M19.1439 0.230469H15.3223V4.09694H19.1439V0.230469Z" fill="#A8A8A8"/>
<path d="M19.144 3.86647C17.8701 3.86647 16.5962 3.86647 15.3224 3.86647C15.3986 3.94272 15.4704 4.01449 15.5466 4.09074C15.5466 2.96489 15.5466 1.83904 15.5466 0.717674C15.5466 0.551712 15.5466 0.390235 15.5466 0.224273C15.4704 0.300526 15.3986 0.372294 15.3224 0.448546C16.5962 0.448546 17.8701 0.448546 19.144 0.448546C19.0677 0.372294 18.996 0.300526 18.9197 0.224273C18.9197 1.35012 18.9197 2.47598 18.9197 3.59734C18.9197 3.7633 18.9197 3.92478 18.9197 4.09074C18.9197 4.37781 19.3683 4.37781 19.3683 4.09074C19.3683 2.96489 19.3683 1.83904 19.3683 0.717674C19.3683 0.551712 19.3683 0.390235 19.3683 0.224273C19.3683 0.103166 19.2651 0 19.144 0C17.8701 0 16.5962 0 15.3224 0C15.2012 0 15.0981 0.103166 15.0981 0.224273C15.0981 1.35012 15.0981 2.47598 15.0981 3.59734C15.0981 3.7633 15.0981 3.92478 15.0981 4.09074C15.0981 4.21185 15.2012 4.31502 15.3224 4.31502C16.5962 4.31502 17.8701 4.31502 19.144 4.31502C19.4311 4.31502 19.4311 3.86647 19.144 3.86647Z" fill="#A8A8A8"/>
<path d="M11.595 14.0938H7.77338V17.9602H11.595V14.0938Z" fill="#A8A8A8"/>
<path d="M11.595 17.7317C10.3211 17.7317 9.04722 17.7317 7.77335 17.7317C7.8496 17.808 7.92137 17.8797 7.99762 17.956C7.99762 16.8301 7.99762 15.7043 7.99762 14.5829C7.99762 14.4169 7.99762 14.2555 7.99762 14.0895C7.92137 14.1658 7.8496 14.2375 7.77335 14.3138C9.04722 14.3138 10.3211 14.3138 11.595 14.3138C11.5187 14.2375 11.4469 14.1658 11.3707 14.0895C11.3707 15.2154 11.3707 16.3412 11.3707 17.4626C11.3707 17.6286 11.3707 17.79 11.3707 17.956C11.3707 18.2431 11.8192 18.2431 11.8192 17.956C11.8192 16.8301 11.8192 15.7043 11.8192 14.5829C11.8192 14.4169 11.8192 14.2555 11.8192 14.0895C11.8192 13.9684 11.7161 13.8652 11.595 13.8652C10.3211 13.8652 9.04722 13.8652 7.77335 13.8652C7.65224 13.8652 7.54907 13.9684 7.54907 14.0895C7.54907 15.2154 7.54907 16.3412 7.54907 17.4626C7.54907 17.6286 7.54907 17.79 7.54907 17.956C7.54907 18.0771 7.65224 18.1803 7.77335 18.1803C9.04722 18.1803 10.3211 18.1803 11.595 18.1803C11.882 18.1803 11.882 17.7317 11.595 17.7317Z" fill="#A8A8A8"/>
<path d="M4.04592 14.0938H0.224304V17.9602H4.04592V14.0938Z" fill="#A8A8A8"/>
<path d="M4.04589 17.7317C2.77202 17.7317 1.49815 17.7317 0.224273 17.7317C0.300526 17.808 0.372294 17.8797 0.448547 17.956C0.448547 16.8301 0.448547 15.7043 0.448547 14.5829C0.448547 14.4169 0.448547 14.2555 0.448547 14.0895C0.372294 14.1658 0.300526 14.2375 0.224273 14.3138C1.49815 14.3138 2.77202 14.3138 4.04589 14.3138C3.96964 14.2375 3.89787 14.1658 3.82162 14.0895C3.82162 15.2154 3.82162 16.3412 3.82162 17.4626C3.82162 17.6285 3.82162 17.79 3.82162 17.956C3.82162 18.2431 4.27016 18.2431 4.27016 17.956C4.27016 16.8301 4.27016 15.7043 4.27016 14.5829C4.27016 14.4169 4.27016 14.2555 4.27016 14.0895C4.27016 13.9684 4.167 13.8652 4.04589 13.8652C2.77202 13.8652 1.49815 13.8652 0.224273 13.8652C0.103166 13.8652 0 13.9684 0 14.0895C0 15.2154 0 16.3412 0 17.4626C0 17.6285 0 17.79 0 17.956C0 18.0771 0.103166 18.1803 0.224273 18.1803C1.49815 18.1803 2.77202 18.1803 4.04589 18.1803C4.33296 18.1803 4.33296 17.7317 4.04589 17.7317Z" fill="#A8A8A8"/>
<path d="M19.1439 14.0938H15.3223V17.9602H19.1439V14.0938Z" fill="#A8A8A8"/>
<path d="M19.144 17.7317C17.8701 17.7317 16.5962 17.7317 15.3224 17.7317C15.3986 17.808 15.4704 17.8797 15.5466 17.956C15.5466 16.8301 15.5466 15.7043 15.5466 14.5829C15.5466 14.4169 15.5466 14.2555 15.5466 14.0895C15.4704 14.1658 15.3986 14.2375 15.3224 14.3138C16.5962 14.3138 17.8701 14.3138 19.144 14.3138C19.0677 14.2375 18.996 14.1658 18.9197 14.0895C18.9197 15.2154 18.9197 16.3412 18.9197 17.4626C18.9197 17.6286 18.9197 17.79 18.9197 17.956C18.9197 18.2431 19.3683 18.2431 19.3683 17.956C19.3683 16.8301 19.3683 15.7043 19.3683 14.5829C19.3683 14.4169 19.3683 14.2555 19.3683 14.0895C19.3683 13.9684 19.2651 13.8652 19.144 13.8652C17.8701 13.8652 16.5962 13.8652 15.3224 13.8652C15.2012 13.8652 15.0981 13.9684 15.0981 14.0895C15.0981 15.2154 15.0981 16.3412 15.0981 17.4626C15.0981 17.6286 15.0981 17.79 15.0981 17.956C15.0981 18.0771 15.2012 18.1803 15.3224 18.1803C16.5962 18.1803 17.8701 18.1803 19.144 18.1803C19.4311 18.1803 19.4311 17.7317 19.144 17.7317Z" fill="#A8A8A8"/>
</svg>
