<svg width="154" height="154" viewBox="0 0 154 154" fill="none" xmlns="http://www.w3.org/2000/svg">
<circle cx="77" cy="77" r="77" fill="#C4C4C4"/>
<path d="M77.0007 69.1816C80.7494 69.1816 84.414 68.07 87.5309 65.9873C90.6479 63.9047 93.0772 60.9445 94.5118 57.4811C95.9464 54.0177 96.3217 50.2068 95.5904 46.5301C94.859 42.8534 93.0539 39.4761 90.4031 36.8254C87.7524 34.1746 84.3751 32.3695 80.6984 31.6381C77.0217 30.9068 73.2108 31.2821 69.7474 32.7167C66.284 34.1513 63.3239 36.5806 61.2412 39.6976C59.1585 42.8145 58.0469 46.4791 58.0469 50.2278C58.0469 55.2547 60.0438 60.0756 63.5983 63.6302C67.1529 67.1847 71.9738 69.1816 77.0007 69.1816ZM77.0007 35.0647C79.9997 35.0647 82.9313 35.954 85.4249 37.6201C87.9184 39.2863 89.8619 41.6544 91.0096 44.4251C92.1572 47.1958 92.4575 50.2446 91.8724 53.186C91.2874 56.1273 89.8432 58.8291 87.7226 60.9497C85.602 63.0703 82.9002 64.5144 79.9589 65.0995C77.0175 65.6846 73.9688 65.3843 71.1981 64.2366C68.4274 63.089 66.0592 61.1455 64.3931 58.6519C62.7269 56.1584 61.8376 53.2268 61.8376 50.2278C61.8376 46.2063 63.4352 42.3495 66.2788 39.5059C69.1224 36.6622 72.9792 35.0647 77.0007 35.0647Z" fill="white"/>
<path d="M81.0207 72.9727H72.9843C68.27 72.9876 63.6048 73.9309 59.2551 75.7487C54.9054 77.5666 50.9563 80.2234 47.6334 83.5675C44.3104 86.9115 41.6787 90.8774 39.8884 95.2385C38.0982 99.5996 37.1844 104.271 37.1994 108.985C37.1994 109.488 37.3991 109.97 37.7545 110.325C38.11 110.681 38.5921 110.88 39.0948 110.88H114.91C115.436 110.832 115.925 110.587 116.276 110.193C116.628 109.799 116.817 109.286 116.806 108.758C116.786 99.273 113.009 90.1826 106.302 83.4759C99.5957 76.7693 90.5053 72.9927 81.0207 72.9727ZM40.9902 107.09C41.4356 98.9096 44.9945 91.2101 50.9368 85.5709C56.8791 79.9317 64.7542 76.7804 72.9464 76.7634H80.9828C89.188 76.761 97.0821 79.9037 103.041 85.5449C108.999 91.186 112.569 98.8965 113.015 107.09H40.9902Z" fill="white"/>
</svg>
