<svg width="122" height="69" viewBox="0 0 122 69" fill="none" xmlns="http://www.w3.org/2000/svg">
<path d="M7.23319 68.9291C11.9505 68.9291 14.6236 66.2453 14.6236 63.088C14.6236 55.826 4.87454 57.5626 4.87454 54.7209C4.87454 53.7737 5.818 52.8265 7.23319 52.8265C8.80562 52.8265 9.74908 53.7737 9.74908 55.3524L14.1519 55.0367C14.1519 51.4057 11.4788 48.7219 7.23319 48.7219C2.83038 48.7219 0.157243 51.4057 0.157243 54.4052C0.157243 61.5093 9.90633 59.7727 9.90633 62.7722C9.90633 63.8773 8.96287 64.8245 7.23319 64.8245C5.34627 64.8245 4.40281 63.8773 4.40281 62.1408L0 62.4565C0 66.2453 2.67314 68.9291 7.23319 68.9291ZM27.7336 68.9291C32.6081 68.9291 35.9102 65.6139 36.8537 61.825L32.1364 61.5093C31.6646 63.088 30.2495 64.5088 27.7336 64.5088C24.9032 64.5088 22.5445 62.1408 22.5445 58.8255C22.5445 55.5103 24.9032 53.1422 27.7336 53.1422C30.0922 53.1422 31.5074 54.5631 31.9791 56.1418L36.6964 55.826C35.753 52.0372 32.4509 48.7219 27.7336 48.7219C22.3873 48.7219 17.9845 53.1422 17.9845 58.8255C17.9845 64.5088 22.3873 68.9291 27.7336 68.9291ZM45.4035 68.7712V60.8778H52.9512V68.7712H57.5113V48.8798H52.9512V56.4575H45.4035V48.8798H40.8435V68.7712H45.4035ZM71.5647 68.9291C76.9109 68.9291 81.3138 64.5088 81.3138 58.8255C81.3138 53.1422 76.9109 48.7219 71.5647 48.7219C66.2184 48.7219 61.8156 53.1422 61.8156 58.8255C61.8156 64.5088 66.2184 68.9291 71.5647 68.9291ZM71.5647 64.5088C68.7343 64.5088 66.3756 62.1408 66.3756 58.8255C66.3756 55.5103 68.7343 53.1422 71.5647 53.1422C74.3951 53.1422 76.7537 55.5103 76.7537 58.8255C76.7537 62.1408 74.3951 64.5088 71.5647 64.5088ZM94.4237 68.9291C99.77 68.9291 104.173 64.5088 104.173 58.8255C104.173 53.1422 99.77 48.7219 94.4237 48.7219C89.0774 48.7219 84.6746 53.1422 84.6746 58.8255C84.6746 64.5088 89.0774 68.9291 94.4237 68.9291ZM94.4237 64.5088C91.5933 64.5088 89.2347 62.1408 89.2347 58.8255C89.2347 55.5103 91.5933 53.1422 94.4237 53.1422C97.2541 53.1422 99.6127 55.5103 99.6127 58.8255C99.6127 62.1408 97.2541 64.5088 94.4237 64.5088ZM122 68.7712V64.3509H113.037V48.8798H108.477V68.7712H122Z" fill="white"/>
<path d="M8.41282 36.7599V15.1708L23.2078 36.7599H30.7503V0H22.3375V21.5892L7.54252 0H0V36.7599H8.41282ZM67.2216 36.7599V28.591H48.9066V22.1727H65.1866V14.0038H48.9066V8.16887H66.6401V0H40.476V36.7599H67.2216ZM90.6524 36.7599L97.3282 15.1708L104.004 36.7599H110.39L122 0H113.873L106.907 22.7561L99.9406 0H94.716L87.7498 22.7561L80.7837 0H72.6565L84.2667 36.7599H90.6524Z" fill="white"/>
</svg>
