<svg width="24" height="24" viewBox="0 0 24 24" fill="none" xmlns="http://www.w3.org/2000/svg">
    <path d="M23.0956 9.23697L11.9795 0.12925C11.8832 0.0457938 11.7611 0 11.6349 0C11.5087 0 11.3867 0.0457938 11.2903 0.12925L0.174287 9.23697C0.0730286 9.33486 0.0113353 9.46811 0.00141363 9.61036C-0.00850805 9.7526 0.0340645 9.89348 0.120708 10.0051C0.207352 10.1168 0.331754 10.191 0.469301 10.2132C0.606848 10.2354 0.747519 10.2039 0.863481 10.125L2.23075 9.0662V20.2801C2.24247 21.0903 2.56726 21.8628 3.13398 22.4283C3.7007 22.9938 4.46315 23.3061 5.25431 23.297H9.45618C9.60358 23.297 9.74496 23.237 9.84919 23.1303C9.95342 23.0235 10.012 22.8788 10.012 22.7278V17.0355C10.006 16.5743 10.1776 16.1293 10.4897 15.7969C10.8018 15.4645 11.2292 15.2714 11.6794 15.2595C11.9005 15.2587 12.1193 15.3048 12.3221 15.3949C12.5249 15.4851 12.7072 15.6173 12.8577 15.7831C13.018 15.9469 13.144 16.1425 13.2281 16.3578C13.3122 16.5731 13.3526 16.8036 13.3468 17.0355V22.7278C13.3468 22.8788 13.4053 23.0235 13.5096 23.1303C13.6138 23.237 13.7552 23.297 13.9026 23.297H18.1267C18.9149 23.3031 19.6733 22.989 20.2359 22.4235C20.7984 21.8581 21.1192 21.0873 21.128 20.2801V9.08897L22.3952 10.125C22.4935 10.2046 22.6146 10.2486 22.7398 10.2502C22.8236 10.2515 22.9065 10.2327 22.9818 10.1951C23.0571 10.1575 23.1228 10.1023 23.1734 10.0339C23.2655 9.91735 23.309 9.76827 23.2945 9.61905C23.2799 9.46983 23.2084 9.33253 23.0956 9.23697ZM20.0164 20.2801C20.0121 20.5313 19.9595 20.7791 19.8616 21.0095C19.7637 21.2398 19.6225 21.4482 19.4459 21.6226C19.2694 21.797 19.0611 21.9342 18.8328 22.0261C18.6045 22.1181 18.3608 22.1631 18.1156 22.1586H14.4584V17.0468C14.4642 16.2827 14.1768 15.5468 13.658 14.9976C13.4033 14.7228 13.0963 14.5043 12.7561 14.3555C12.4158 14.2067 12.0494 14.1307 11.6794 14.1324C11.3101 14.1368 10.9452 14.2158 10.6056 14.3646C10.2661 14.5135 9.95852 14.7295 9.70046 15.0001C9.4424 15.2707 9.23892 15.5908 9.10164 15.942C8.96436 16.2931 8.89597 16.6686 8.90037 17.0468V22.1586H5.26543C5.01871 22.1646 4.77324 22.1208 4.54306 22.0297C4.31287 21.9385 4.10247 21.8018 3.92388 21.6274C3.74529 21.4529 3.60201 21.2442 3.50223 21.013C3.40245 20.7818 3.34813 20.5328 3.34236 20.2801V8.14405L11.6683 1.31325L20.0164 8.14405V20.2801Z" fill="black"/>
</svg>
