<svg width="20" height="21" viewBox="0 0 20 21" fill="none" xmlns="http://www.w3.org/2000/svg">
<path d="M0 11.4664C0 12.0939 0.123577 12.7151 0.36368 13.2948C0.603781 13.8744 0.955702 14.4011 1.39935 14.8448C1.843 15.2884 2.36969 15.6404 2.94934 15.8805C3.529 16.1206 4.15027 16.2441 4.77768 16.2441H7.59652C7.72323 16.2441 7.84475 16.1938 7.93435 16.1042C8.02395 16.0146 8.07429 15.8931 8.07429 15.7664C8.07429 15.6397 8.02395 15.5181 7.93435 15.4285C7.84475 15.3389 7.72323 15.2886 7.59652 15.2886H4.77768C3.76399 15.2886 2.79181 14.8859 2.07502 14.1691C1.35823 13.4523 0.955538 12.4801 0.955538 11.4664C0.955538 10.4527 1.35823 9.48057 2.07502 8.76378C2.79181 8.04699 3.76399 7.6443 4.77768 7.6443C4.92404 7.63449 5.07088 7.63449 5.21723 7.6443C5.28604 7.65077 5.35545 7.64309 5.42119 7.62173C5.48692 7.60036 5.54759 7.56577 5.59945 7.52008C5.64417 7.47303 5.67904 7.41751 5.70201 7.3568C5.72498 7.29609 5.73559 7.2314 5.73322 7.16653C5.73322 6.98498 5.73322 6.84165 5.73322 6.68876C5.73322 5.16821 6.33725 3.70995 7.41244 2.63476C8.48763 1.55957 9.9459 0.955537 11.4664 0.955537C12.987 0.955537 14.4453 1.55957 15.5204 2.63476C16.5956 3.70995 17.1997 5.16821 17.1997 6.68876C17.2006 7.04134 17.1686 7.39323 17.1041 7.73985C17.0852 7.83386 17.0962 7.93143 17.1357 8.01884C17.1751 8.10626 17.2409 8.17911 17.3239 8.22717C18.0275 8.66783 18.5685 9.32559 18.865 10.101C19.1616 10.8764 19.1977 11.7273 18.9678 12.525C18.7378 13.3227 18.2544 14.0239 17.5906 14.5225C16.9269 15.0211 16.1188 15.29 15.2886 15.2886H12.4889C12.3622 15.2886 12.2406 15.3389 12.151 15.4285C12.0614 15.5181 12.0111 15.6397 12.0111 15.7664C12.0111 15.8931 12.0614 16.0146 12.151 16.1042C12.2406 16.1938 12.3622 16.2441 12.4889 16.2441H15.2886C16.2857 16.2303 17.2534 15.9048 18.0562 15.3134C18.859 14.7219 19.4566 13.8941 19.7653 12.9459C20.074 11.9977 20.0783 10.9767 19.7775 10.026C19.4768 9.07527 18.8861 8.24246 18.0883 7.6443C18.1365 7.32813 18.1589 7.00856 18.1552 6.68876C18.1552 4.91479 17.4505 3.21348 16.1961 1.95909C14.9417 0.704707 13.2404 0 11.4664 0C9.69247 0 7.99116 0.704707 6.73678 1.95909C5.48239 3.21348 4.77768 4.91479 4.77768 6.68876C4.15027 6.68876 3.529 6.81234 2.94934 7.05244C2.36969 7.29254 1.843 7.64446 1.39935 8.08811C0.955702 8.53176 0.603781 9.05845 0.36368 9.6381C0.123577 10.2178 0 10.839 0 11.4664ZM8.4565 17.343L9.55537 18.4323V10.9887C9.55537 10.862 9.6057 10.7404 9.6953 10.6508C9.7849 10.5612 9.90642 10.5109 10.0331 10.5109C10.1598 10.5109 10.2814 10.5612 10.371 10.6508C10.4606 10.7404 10.5109 10.862 10.5109 10.9887V18.4323L11.6098 17.343C11.6537 17.2991 11.7058 17.2642 11.7632 17.2405C11.8206 17.2167 11.8821 17.2045 11.9442 17.2045C12.0063 17.2045 12.0678 17.2167 12.1252 17.2405C12.1826 17.2642 12.2347 17.2991 12.2786 17.343C12.3226 17.3869 12.3574 17.4391 12.3812 17.4964C12.4049 17.5538 12.4172 17.6153 12.4172 17.6774C12.4172 17.7395 12.4049 17.8011 12.3812 17.8584C12.3574 17.9158 12.3226 17.968 12.2786 18.0119L10.3676 19.9229C10.3272 19.9713 10.2743 20.0077 10.2147 20.0281C10.1575 20.0533 10.0957 20.0664 10.0331 20.0664C9.97061 20.0664 9.90877 20.0533 9.85159 20.0281C9.79196 20.0077 9.73907 19.9713 9.6987 19.9229L7.78762 18.0119C7.74371 17.968 7.70887 17.9158 7.6851 17.8584C7.66133 17.8011 7.6491 17.7395 7.6491 17.6774C7.6491 17.6153 7.66133 17.5538 7.6851 17.4964C7.70887 17.4391 7.74371 17.3869 7.78762 17.343C7.83154 17.2991 7.88368 17.2642 7.94107 17.2405C7.99845 17.2167 8.05995 17.2045 8.12206 17.2045C8.18417 17.2045 8.24568 17.2167 8.30306 17.2405C8.36044 17.2642 8.41258 17.2991 8.4565 17.343Z" fill="white"/>
</svg>
