<svg width="27" height="19" viewBox="0 0 27 19" fill="none" xmlns="http://www.w3.org/2000/svg">
<path d="M26.7188 15.4375H5.9375V19H26.7188V15.4375Z" fill="#6A6A6A"/>
<path d="M0 17.2188C0 18.2025 0.797493 19 1.78125 19C2.76501 19 3.5625 18.2025 3.5625 17.2188C3.5625 16.235 2.76501 15.4375 1.78125 15.4375C0.797493 15.4375 0 16.235 0 17.2188Z" fill="#6A6A6A"/>
<path d="M26.7188 7.71875H5.9375V11.2812H26.7188V7.71875Z" fill="#6A6A6A"/>
<path d="M0 9.5C0 10.4838 0.797493 11.2812 1.78125 11.2812C2.76501 11.2812 3.5625 10.4838 3.5625 9.5C3.5625 8.51624 2.76501 7.71875 1.78125 7.71875C0.797493 7.71875 0 8.51624 0 9.5Z" fill="#6A6A6A"/>
<path d="M26.7188 0H5.9375V3.5625H26.7188V0Z" fill="#6A6A6A"/>
<path d="M0 1.78125C0 2.76501 0.797493 3.5625 1.78125 3.5625C2.76501 3.5625 3.5625 2.76501 3.5625 1.78125C3.5625 0.797493 2.76501 0 1.78125 0C0.797493 0 0 0.797493 0 1.78125Z" fill="#6A6A6A"/>
</svg>
