<svg width="17" height="24" viewBox="0 0 17 24" fill="none" xmlns="http://www.w3.org/2000/svg">
<g clip-path="url(#clip0)">
<path d="M17.1016 16.0592C16.7824 17.0822 16.279 18.1053 15.5915 19.1283C14.5357 20.7325 13.484 21.5346 12.4364 21.5346C12.0353 21.5346 11.4624 21.4036 10.7176 21.1417C10.0138 20.8798 9.39583 20.7489 8.86384 20.7489C8.36458 20.7489 7.78348 20.8839 7.12054 21.154C6.45759 21.4323 5.91741 21.5714 5.5 21.5714C4.25595 21.5714 3.02418 20.5115 1.80469 18.3917C0.601562 16.2556 0 14.1972 0 12.2165C0 10.3504 0.462426 8.81994 1.38728 7.625C2.31213 6.44643 3.47433 5.85714 4.87388 5.85714C5.46317 5.85714 6.1875 5.97991 7.04688 6.22545C7.89807 6.47098 8.4628 6.59375 8.74107 6.59375C9.10938 6.59375 9.69457 6.45461 10.4967 6.17634C11.3315 5.89806 12.0394 5.75893 12.6205 5.75893C13.5945 5.75893 14.4661 6.02493 15.2355 6.55692C15.6611 6.85156 16.0867 7.26079 16.5123 7.7846C15.8657 8.33296 15.3992 8.81585 15.1127 9.23326C14.5807 10.0026 14.3147 10.8497 14.3147 11.7746C14.3147 12.7894 14.5971 13.702 15.1618 14.5123C15.7266 15.3225 16.3731 15.8382 17.1016 16.0592ZM12.4855 1.65848C12.4855 2.15774 12.3668 2.71428 12.1295 3.32812C11.8839 3.94196 11.5033 4.5067 10.9877 5.02232C10.5458 5.46428 10.1038 5.75893 9.66183 5.90625C9.359 5.99628 8.93341 6.06585 8.38505 6.11495C8.4096 4.89546 8.7288 3.84375 9.34263 2.95982C9.94829 2.08408 10.9714 1.47842 12.4118 1.14286C12.42 1.16741 12.4282 1.21242 12.4364 1.2779C12.4528 1.34338 12.465 1.38839 12.4732 1.41295C12.4732 1.44568 12.4732 1.48661 12.4732 1.53571C12.4814 1.58482 12.4855 1.62574 12.4855 1.65848Z" fill="white"/>
</g>
<defs>
<clipPath id="clip0">
<rect width="17" height="24" fill="white"/>
</clipPath>
</defs>
</svg>
