<svg width="21" height="21" viewBox="0 0 21 21" fill="none" xmlns="http://www.w3.org/2000/svg">
<path d="M4.65404 12.6906L3.92306 15.4194L1.25135 15.4759C0.452895 13.995 0 12.3006 0 10.5C0 8.75884 0.423445 7.1169 1.17403 5.67114H1.17461L3.55318 6.10722L4.59514 8.47153C4.37706 9.10731 4.2582 9.78981 4.2582 10.5C4.25828 11.2708 4.3979 12.0092 4.65404 12.6906Z" fill="#FBBB00"/>
<path d="M20.8167 8.53857C20.9372 9.17374 21.0001 9.82971 21.0001 10.5001C21.0001 11.2518 20.9211 11.9851 20.7705 12.6924C20.2594 15.0994 18.9238 17.2011 17.0736 18.6884L17.073 18.6878L14.0771 18.5349L13.6531 15.888C14.8808 15.168 15.8402 14.0413 16.3456 12.6924H10.731V8.53857H16.4275H20.8167Z" fill="#518EF8"/>
<path d="M17.073 18.6875L17.0736 18.6881C15.2742 20.1344 12.9884 20.9998 10.5001 20.9998C6.50146 20.9998 3.02494 18.7648 1.25146 15.4758L4.65416 12.6904C5.54088 15.0569 7.82377 16.7416 10.5001 16.7416C11.6505 16.7416 12.7282 16.4306 13.653 15.8877L17.073 18.6875Z" fill="#28B446"/>
<path d="M17.2021 2.4173L13.8005 5.20209C12.8434 4.60384 11.712 4.25824 10.5 4.25824C7.76302 4.25824 5.43744 6.02015 4.59514 8.47153L1.17456 5.67115C2.92207 2.30192 6.44187 0 10.5 0C13.0476 0 15.3836 0.907512 17.2021 2.4173Z" fill="#F14336"/>
</svg>
