<svg width="38" height="38" viewBox="0 0 38 38" fill="none" xmlns="http://www.w3.org/2000/svg">
<path d="M28.1725 19.6551C28.5343 19.6551 28.8277 19.3617 28.8277 18.9999C28.8277 18.6381 28.5343 18.3447 28.1725 18.3447C27.8107 18.3447 27.5173 18.6381 27.5173 18.9999C27.5173 19.3617 27.8107 19.6551 28.1725 19.6551Z" fill="#606060"/>
<path d="M24.2414 13.1035H25.5517V14.4139H30.7931V13.1035H32.1034V14.4139H33.4138V13.7587C33.4138 12.2951 32.4422 11.0673 31.1154 10.6486L30.0691 12.7419C29.9748 12.9299 29.7959 13.0616 29.5882 13.0957C29.5529 13.1009 29.5175 13.1035 29.4828 13.1035C29.3104 13.1035 29.1434 13.0354 29.0195 12.9116L28.1724 12.0644L27.3253 12.9116C27.1765 13.0616 26.9662 13.1304 26.7572 13.095C26.5495 13.0609 26.3707 12.9293 26.2763 12.7412L25.23 10.6479C23.9027 11.0673 22.931 12.2951 22.931 13.7587V14.4139H24.2414V13.1035Z" fill="#606060"/>
<path d="M34.7241 15.7241H21.6206V22.2758H34.7241V15.7241ZM28.1723 20.9655C27.0887 20.9655 26.2068 20.0836 26.2068 19C26.2068 17.9163 27.0887 17.0345 28.1723 17.0345C29.256 17.0345 30.1378 17.9163 30.1378 19C30.1378 20.0836 29.256 20.9655 28.1723 20.9655Z" fill="#606060"/>
<path d="M23.5862 6.5518H24.2414V5.24146H23.5862C23.2252 5.24146 22.931 5.53497 22.931 5.89663C22.931 6.25828 23.2252 6.5518 23.5862 6.5518Z" fill="#606060"/>
<path d="M7.20683 1.96552C7.20683 1.60321 7.50035 1.31034 7.862 1.31034C8.22366 1.31034 8.51717 1.60321 8.51717 1.96552C8.51717 2.87686 10.4997 3.93103 11.793 3.93103H13.7586V1.96552C13.7586 0.881862 12.8767 0 11.793 0H7.862C6.77835 0 5.89648 0.881862 5.89648 1.96552V3.819C6.65911 3.54841 7.20683 2.81986 7.20683 1.96552Z" fill="#606060"/>
<path d="M13.7585 6.5518H14.4137C14.7747 6.5518 15.0689 6.25828 15.0689 5.89663C15.0689 5.53497 14.7747 5.24146 14.4137 5.24146H13.7585V6.5518Z" fill="#606060"/>
<path d="M27.0416 11.3423L27.7092 10.6746C27.837 10.5469 28.0047 10.4827 28.1724 10.4827H26.6118L27.0416 11.3423Z" fill="#606060"/>
<path d="M32.1035 6.5518H32.7587C33.1197 6.5518 33.4139 6.25828 33.4139 5.89663C33.4139 5.53497 33.1197 5.24146 32.7587 5.24146H32.1035V6.5518Z" fill="#606060"/>
<path d="M25.5518 1.96552C25.5518 1.60321 25.8453 1.31034 26.207 1.31034C26.5686 1.31034 26.8621 1.60321 26.8621 1.96552C26.8621 2.87686 28.8447 3.93103 30.138 3.93103H32.1035V1.96552C32.1035 0.881862 31.2217 0 30.138 0H26.207C25.1233 0 24.2415 0.881862 24.2415 1.96552V3.819C25.0041 3.54841 25.5518 2.81986 25.5518 1.96552Z" fill="#606060"/>
<path d="M28.6356 10.6746L29.3032 11.3423L29.733 10.4827H28.1724C28.3401 10.4827 28.5078 10.5469 28.6356 10.6746Z" fill="#606060"/>
<path d="M30.7931 6.55176V5.24141H30.138C29.0818 5.24141 27.3797 4.66748 26.3727 3.68604C26.1571 4.03393 25.878 4.33859 25.5518 4.58428V6.55176C25.5518 7.99707 26.7271 9.17245 28.1724 9.17245C29.6178 9.17245 30.7931 7.99707 30.7931 6.55176Z" fill="#606060"/>
<path d="M31.4483 27.5173H6.55176V35.3794H31.4483V27.5173Z" fill="#606060"/>
<path d="M9.82754 19.6551C10.1894 19.6551 10.4827 19.3617 10.4827 18.9999C10.4827 18.6381 10.1894 18.3447 9.82754 18.3447C9.46569 18.3447 9.17236 18.6381 9.17236 18.9999C9.17236 19.3617 9.46569 19.6551 9.82754 19.6551Z" fill="#606060"/>
<path d="M12.4483 6.55176V5.24141H11.7931C10.737 5.24141 9.03484 4.66748 8.02784 3.68604C7.81229 4.03393 7.53319 4.33859 7.20691 4.58428V6.55176C7.20691 7.99707 8.38229 9.17245 9.8276 9.17245C11.2729 9.17245 12.4483 7.99707 12.4483 6.55176Z" fill="#606060"/>
<path d="M5.2413 27.5173H2.62061V38.0001H5.2413V27.5173Z" fill="#606060"/>
<path d="M35.3792 27.5173H32.7585V38.0001H35.3792V27.5173Z" fill="#606060"/>
<path d="M35.3793 23.5862H20.9655H17.0345H2.62069H0V26.2069H1.96552H5.89655H32.1034H36.0345H38V23.5862H35.3793Z" fill="#606060"/>
<path d="M16.3793 15.7241H3.27588V22.2758H16.3793V15.7241ZM9.8276 20.9655C8.74395 20.9655 7.86209 20.0836 7.86209 19C7.86209 17.9163 8.74395 17.0345 9.8276 17.0345C10.9113 17.0345 11.7931 17.9163 11.7931 19C11.7931 20.0836 10.9113 20.9655 9.8276 20.9655Z" fill="#606060"/>
<path d="M8.69676 11.3423L9.36438 10.6746C9.49214 10.5469 9.65986 10.4827 9.82759 10.4827H8.26697L8.69676 11.3423Z" fill="#606060"/>
<path d="M5.89653 13.1035H7.20687V14.4139H12.4483V13.1035H13.7586V14.4139H15.0689V13.7587C15.0689 12.2951 14.0973 11.0673 12.7706 10.6486L11.7243 12.7419C11.6299 12.9299 11.4511 13.0616 11.2434 13.0957C11.208 13.1009 11.1726 13.1035 11.1379 13.1035C10.9656 13.1035 10.7985 13.0354 10.6747 12.9116L9.82756 12.0644L8.98042 12.9116C8.8317 13.0616 8.62073 13.1304 8.41239 13.095C8.2047 13.0609 8.02584 12.9293 7.93149 12.7412L6.88518 10.6479C5.5578 11.0673 4.58618 12.2951 4.58618 13.7587V14.4139H5.89653V13.1035Z" fill="#606060"/>
<path d="M10.2908 10.6746L10.9585 11.3423L11.3883 10.4827H9.82764C9.99536 10.4827 10.1631 10.5469 10.2908 10.6746Z" fill="#606060"/>
<path d="M5.24135 6.5518H5.89653V5.24146H5.24135C4.88035 5.24146 4.58618 5.53497 4.58618 5.89663C4.58618 6.25828 4.88035 6.5518 5.24135 6.5518Z" fill="#606060"/>
</svg>
