<svg width="35" height="36" viewBox="0 0 35 36" fill="none" xmlns="http://www.w3.org/2000/svg">
<path fill-rule="evenodd" clip-rule="evenodd" d="M15.1803 0V2.0898H12.6118V34.0166H10.4753L10.5026 26.5992H3.15524V25.2137H10.5065L10.5144 22.8865H3.15542V21.5011H10.5222L10.5302 19.174H3.15559V17.7885H10.5341L10.542 15.4614H3.15576V14.076H10.5498L10.5657 9.25037H5.31983V10.5852H1.93801V34.0166H0V35.76H34.2267V34.0166H32.2692V2.0898H29.7047V0H15.1812H15.1803ZM14.8495 4.51817H17.8694V7.79099H14.8495V4.51817ZM24.2516 5.67005C27.1744 5.67005 29.5442 8.03986 29.5442 10.9627C29.5442 13.8855 27.1744 16.2552 24.2516 16.2552C21.3288 16.2552 18.959 13.8855 18.959 10.9627C18.959 8.03986 21.3288 5.67005 24.2516 5.67005ZM23.9403 7.65477V8.23464C23.4764 8.2998 23.1365 8.479 22.9207 8.77168C22.705 9.06495 22.5938 9.39385 22.5938 9.76017C22.5938 10.0393 22.656 10.285 22.7767 10.4957C22.8975 10.7057 23.0537 10.8696 23.2476 10.986C23.4415 11.1035 23.7127 11.2206 24.0571 11.3401C24.4402 11.4756 24.6894 11.5865 24.8004 11.6748C24.9114 11.7627 24.9638 11.8928 24.9638 12.064C24.9638 12.2294 24.9116 12.3712 24.8004 12.4882C24.6892 12.6049 24.5147 12.6633 24.2789 12.6633C23.7743 12.6633 23.4776 12.392 23.3877 11.8461L22.4148 12.099C22.6105 12.9674 23.1205 13.4434 23.9403 13.5272V14.2705H24.5669V13.5233C25.0585 13.4717 25.4351 13.2978 25.6954 13.0058C25.9558 12.7144 26.0846 12.3496 26.0846 11.9122C26.0846 11.6273 26.0198 11.3782 25.8939 11.165C25.7672 10.9525 25.5999 10.7875 25.388 10.6669C25.1767 10.5462 24.8845 10.4173 24.5124 10.2816C24.1739 10.1571 23.9534 10.0542 23.8508 9.9703C23.7476 9.88562 23.6952 9.76212 23.6952 9.60452C23.6952 9.4501 23.7476 9.31984 23.8548 9.21146C23.9614 9.10287 24.1057 9.04807 24.2829 9.04807C24.6356 9.04807 24.8924 9.28998 25.0612 9.77583L25.9251 9.42168C25.719 8.71295 25.2673 8.31862 24.567 8.23473V7.65486H23.9404L23.9403 7.65477ZM14.8495 9.42546H17.8694V12.6944H14.8495V9.42546ZM14.8495 14.3289H17.8694V17.6017H14.8495V14.3289ZM14.8495 19.2362H17.8694V22.5091H14.8495V19.2362ZM18.7722 19.2362H21.7921V22.5091H18.7722V19.2362ZM22.6989 19.2362H25.7188V22.5091H22.6989V19.2362ZM14.8495 24.1435H17.8694V27.4125H14.8495V24.1435ZM18.7722 24.1435H21.7921V27.4125H18.7722V24.1435ZM22.6989 24.1435H25.7188V27.4125H22.6989V24.1435ZM26.6216 24.1435H29.6415V27.4125H26.6216V24.1435Z" fill="#515151"/>
</svg>
