<svg width="11" height="11" viewBox="0 0 11 11" fill="none" xmlns="http://www.w3.org/2000/svg">
<path d="M10.5703 5.92969H5.92969V10.5703C5.92969 10.8076 5.73732 11 5.5 11C5.26268 11 5.07031 10.8076 5.07031 10.5703V5.92969H0.429688C0.192371 5.92969 0 5.73732 0 5.5C0 5.26268 0.192371 5.07031 0.429688 5.07031H5.07031V0.429688C5.07031 0.192371 5.26268 0 5.5 0C5.73732 0 5.92969 0.192371 5.92969 0.429688V5.07031H10.5703C10.8076 5.07031 11 5.26268 11 5.5C11 5.73732 10.8076 5.92969 10.5703 5.92969Z" fill="white"/>
</svg>
