<svg width="22" height="22" viewBox="0 0 22 22"  xmlns="http://www.w3.org/2000/svg">
    <path d="M10.9938 10.2064C12.0031 10.2064 12.9897 9.9071 13.8289 9.34635C14.6681 8.78561 15.3222 7.9886 15.7085 7.05611C16.0947 6.12362 16.1958 5.09754 15.9989 4.10762C15.802 3.11769 15.3159 2.20839 14.6023 1.49469C13.8886 0.780999 12.9793 0.294967 11.9894 0.0980588C10.9994 -0.0988492 9.97337 0.00221113 9.04089 0.38846C8.10841 0.774709 7.3114 1.4288 6.75066 2.26802C6.18992 3.10723 5.89063 4.09388 5.89062 5.1032C5.89062 6.45665 6.42828 7.75467 7.3853 8.71171C8.34233 9.66874 9.64034 10.2064 10.9938 10.2064ZM10.9938 1.02064C11.8012 1.02064 12.5905 1.26008 13.2619 1.70868C13.9333 2.15727 14.4565 2.79488 14.7655 3.54087C15.0745 4.28686 15.1554 5.10773 14.9979 5.89967C14.8403 6.69161 14.4515 7.41905 13.8806 7.99001C13.3096 8.56096 12.5822 8.94979 11.7902 9.10731C10.9983 9.26484 10.1774 9.18399 9.43146 8.87499C8.68548 8.56599 8.04788 8.04272 7.59929 7.37135C7.15069 6.69998 6.91126 5.91065 6.91126 5.1032C6.91126 4.02044 7.34138 2.98202 8.107 2.2164C8.87262 1.45077 9.91103 1.02064 10.9938 1.02064Z" fill="#959595"/>
    <path d="M12.0756 11.2271H9.9119C8.64263 11.2311 7.38657 11.485 6.21545 11.9745C5.04433 12.4639 3.98108 13.1793 3.08641 14.0796C2.19173 14.98 1.48316 16.0478 1.00115 17.222C0.519137 18.3962 0.273121 19.6538 0.277148 20.9231C0.277148 21.0585 0.330914 21.1883 0.426616 21.284C0.522319 21.3797 0.65212 21.4334 0.787464 21.4334H21.2001C21.3417 21.4206 21.4732 21.3544 21.5679 21.2483C21.6626 21.1422 21.7136 21.0041 21.7104 20.8619C21.705 18.3082 20.6882 15.8607 18.8825 14.055C17.0768 12.2493 14.6293 11.2324 12.0756 11.2271ZM1.29778 20.4128C1.4177 18.2104 2.37592 16.1374 3.97583 14.619C5.57574 13.1007 7.69604 12.2522 9.9017 12.2477H12.0654C14.2746 12.247 16.4 13.0932 18.0043 14.612C19.6086 16.1309 20.5696 18.2069 20.6898 20.4128H1.29778Z" fill="#959595"/>
</svg>
