<svg width="21" height="19" viewBox="0 0 21 19" fill="none" xmlns="http://www.w3.org/2000/svg">
<path d="M3.2469 7.79232C3.35408 7.29744 3.5046 6.81169 3.70072 6.34418C3.66195 6.4354 3.62318 6.52662 3.5867 6.61556C3.85808 5.97701 4.207 5.37723 4.63118 4.82762C4.57189 4.90516 4.51259 4.98042 4.4533 5.05795C4.87292 4.51519 5.35867 4.02943 5.90144 3.60753C5.8239 3.66683 5.74865 3.72612 5.67111 3.78541C6.21616 3.36579 6.81366 3.01687 7.44765 2.74777C7.35643 2.78654 7.2652 2.82531 7.17626 2.8618C7.8399 2.58357 8.53546 2.39657 9.24699 2.30078C9.14665 2.31447 9.04402 2.32815 8.94368 2.34183C9.64837 2.25061 10.3599 2.25061 11.0623 2.34411C10.962 2.33043 10.8593 2.31675 10.759 2.30306C11.4637 2.39885 12.1524 2.59041 12.8092 2.86636C12.718 2.82759 12.6267 2.78882 12.5378 2.75233C13.1764 3.026 13.7784 3.3772 14.328 3.80366C14.2505 3.74436 14.1752 3.68507 14.0977 3.62578C14.6313 4.04311 15.1125 4.52203 15.5276 5.05795C15.4683 4.98042 15.409 4.90516 15.3497 4.82762C15.7716 5.37495 16.1205 5.97473 16.3896 6.611C16.3509 6.51978 16.3121 6.42856 16.2756 6.33962C16.4581 6.77976 16.604 7.23359 16.7089 7.69654C16.7705 7.96792 16.9963 8.23931 17.2334 8.37842C17.4775 8.52209 17.8378 8.58139 18.1114 8.49245C18.7226 8.29404 19.0487 7.71478 18.9073 7.08991C18.547 5.51634 17.7511 4.04996 16.6473 2.8732C15.5778 1.73065 14.1958 0.884569 12.7066 0.410217C11.1581 -0.0823794 9.47733 -0.121148 7.89691 0.239177C6.29369 0.606343 4.79538 1.43646 3.61634 2.57673C2.46695 3.68963 1.61403 5.12409 1.17845 6.66117C1.12828 6.83449 1.08723 7.0101 1.04846 7.1857C0.984602 7.48445 1.00513 7.7946 1.16248 8.0637C1.3016 8.30088 1.57298 8.52665 1.84437 8.58823C2.13627 8.65436 2.46467 8.64068 2.72237 8.4742C2.96411 8.31913 3.18532 8.08423 3.2469 7.79232Z" fill="#959595"/>
<path d="M17.8998 3.766C17.56 4.73751 17.2202 5.7113 16.8804 6.68281C16.8325 6.81964 16.7846 6.95647 16.7367 7.09559C17.2042 6.83104 17.6717 6.56422 18.1392 6.29968C17.1677 5.95988 16.1939 5.62008 15.2224 5.28028C15.0856 5.23239 14.9487 5.1845 14.8096 5.13661C14.5405 5.0431 14.1688 5.11152 13.9316 5.25063C13.6945 5.38975 13.4687 5.66113 13.4071 5.93251C13.341 6.22442 13.3547 6.55282 13.5211 6.81052C13.6876 7.0705 13.9111 7.23242 14.203 7.33504C15.1745 7.67484 16.1483 8.01464 17.1198 8.35444C17.2566 8.40233 17.3935 8.45022 17.5326 8.49811C17.7903 8.58706 18.1848 8.53004 18.4106 8.38409C18.6706 8.21761 18.8325 7.99412 18.9351 7.70221C19.2749 6.7307 19.6147 5.75691 19.9545 4.7854C20.0024 4.64857 20.0503 4.51174 20.0982 4.37263C20.1917 4.10352 20.1233 3.7318 19.9842 3.49462C19.8451 3.25745 19.5737 3.03167 19.3023 2.9701C19.0104 2.90396 18.682 2.91765 18.4243 3.08412C18.1643 3.25288 18.0001 3.4741 17.8998 3.766Z" fill="#959595"/>
<path d="M16.8527 10.4331C16.7455 10.928 16.595 11.4137 16.3989 11.8813C16.4377 11.79 16.4764 11.6988 16.5129 11.6099C16.2416 12.2484 15.8926 12.8482 15.4684 13.3978C15.5277 13.3203 15.587 13.245 15.6463 13.1675C15.2267 13.7102 14.741 14.196 14.1982 14.6179C14.2757 14.5586 14.351 14.4993 14.4285 14.44C13.8835 14.8596 13.286 15.2086 12.652 15.4777C12.7432 15.4389 12.8344 15.4001 12.9234 15.3636C12.2597 15.6419 11.5642 15.8289 10.8526 15.9247C10.953 15.911 11.0556 15.8973 11.1559 15.8836C10.4513 15.9748 9.73974 15.9748 9.03733 15.8813C9.13767 15.895 9.2403 15.9087 9.34064 15.9224C8.63595 15.8266 7.94723 15.635 7.29044 15.3591C7.38166 15.3979 7.47288 15.4366 7.56182 15.4731C6.92327 15.1994 6.32121 14.8482 5.7716 14.4218C5.84914 14.4811 5.9244 14.5404 6.00193 14.5997C5.46829 14.1823 4.98709 13.7034 4.57204 13.1675C4.63133 13.245 4.69062 13.3203 4.74992 13.3978C4.32802 12.8505 3.9791 12.2507 3.70999 11.6144C3.74876 11.7057 3.78753 11.7969 3.82402 11.8858C3.64158 11.4457 3.49562 10.9918 3.39072 10.5289C3.32914 10.2575 3.10337 9.98612 2.86619 9.84701C2.62218 9.70333 2.26185 9.64404 1.98819 9.73298C1.377 9.93139 1.05089 10.5106 1.19228 11.1355C1.54804 12.7114 2.34623 14.1778 3.44773 15.3568C4.5173 16.4994 5.89931 17.3454 7.3885 17.8198C8.93699 18.3124 10.6177 18.3512 12.1982 17.9908C13.8014 17.6237 15.2997 16.7935 16.4787 15.6533C17.6281 14.5404 18.481 13.1059 18.9166 11.5688C18.9668 11.3955 19.0078 11.2199 19.0466 11.0443C19.1105 10.7455 19.0899 10.4354 18.9326 10.1663C18.7935 9.92911 18.5221 9.70333 18.2507 9.64176C17.9588 9.57562 17.6304 9.58931 17.3727 9.75579C17.1355 9.90858 16.9166 10.1435 16.8527 10.4331Z" fill="#959595"/>
<path d="M2.24145 14.4582C2.58125 13.4866 2.92105 12.5128 3.26085 11.5413C3.30874 11.4045 3.35664 11.2677 3.40453 11.1285C2.93702 11.3931 2.46951 11.6599 2.002 11.9245C2.97351 12.2643 3.94729 12.6041 4.9188 12.9439C5.05564 12.9918 5.19247 13.0396 5.33158 13.0875C5.60069 13.181 5.97241 13.1126 6.20959 12.9735C6.44676 12.8344 6.67254 12.563 6.73411 12.2916C6.80025 11.9997 6.78657 11.6713 6.62009 11.4136C6.45361 11.1536 6.23011 10.9917 5.93821 10.8891C4.9667 10.5493 3.99291 10.2095 3.0214 9.86968C2.88456 9.82179 2.74773 9.7739 2.60862 9.726C2.35092 9.63706 1.95639 9.69408 1.73061 9.84003C1.47063 10.0065 1.30871 10.23 1.20609 10.5219C0.866288 11.4934 0.526488 12.4672 0.186687 13.4387C0.138796 13.5756 0.0909046 13.7124 0.0430133 13.8515C-0.0504887 14.1206 0.0179274 14.4924 0.15704 14.7295C0.296153 14.9667 0.567537 15.1925 0.838921 15.2541C1.13083 15.3202 1.45923 15.3065 1.71693 15.14C1.97691 14.9736 2.13883 14.7501 2.24145 14.4582Z" fill="#959595"/>
</svg>
