<?xml version="1.0"?>
<svg xmlns="http://www.w3.org/2000/svg" width="16" height="16" viewBox="0 0 16 16" fill="none">
    <circle cx="8" cy="8" r="7.5" fill="white" stroke="#777777"/>
    <path d="M4.94579 5.00831C4.73359 5.22051 4.7385 5.56949 4.95677 5.78776L7.1963 8.02729L5.01897 10.2046C4.80678 10.4168 4.81168 10.7658 5.02995 10.9841C5.24821 11.2023 5.5972 11.2072 5.8094 10.995L7.98672 8.81771L10.2262 11.0572C10.4445 11.2755 10.7935 11.2804 11.0057 11.0682C11.2179 10.856 11.213 10.507 10.9947 10.2888L8.75518 8.04924L10.9325 5.87192C11.1447 5.65972 11.1398 5.31074 10.9215 5.09248C10.7033 4.8742 10.3543 4.8693 10.1421 5.0815L7.96476 7.25882L5.72523 5.01929C5.50696 4.80102 5.158 4.7961 4.94579 5.00831Z" fill="#777777"/>
</svg>
