<svg width="36" height="25" viewBox="0 0 36 25" fill="none" xmlns="http://www.w3.org/2000/svg">
<path d="M35.1006 9.88368L28.0581 0.241358C28.0123 0.178418 27.9544 0.12523 27.8878 0.084892C27.8212 0.0445541 27.7472 0.0178731 27.6702 0.00640281C27.5932 -0.00506749 27.5147 -0.00109785 27.4392 0.0180812C27.3637 0.0372603 27.2928 0.0712652 27.2307 0.118114L23.3162 3.05248C23.1383 3.18581 23.002 3.36691 22.923 3.5747C22.8441 3.78248 22.8258 4.00842 22.8702 4.22622L19.3489 4.36707C18.1165 4.42523 16.913 4.76021 15.8277 5.34715C15.1188 5.12847 14.3669 5.08815 13.6387 5.22978L11.6433 5.30607C11.6331 5.12762 11.5791 4.95443 11.4859 4.80189C11.3928 4.64934 11.2634 4.52216 11.1093 4.43163L7.08331 1.86113C7.01796 1.81896 6.94489 1.79021 6.86834 1.77653C6.79178 1.76286 6.71327 1.76453 6.63737 1.78146C6.56147 1.79838 6.48969 1.83023 6.42621 1.87514C6.36272 1.92005 6.30879 1.97713 6.26755 2.04306L0.0877806 11.9612C0.0470622 12.027 0.0197655 12.1003 0.00746224 12.1767C-0.00484103 12.2531 -0.00190788 12.3312 0.0160927 12.4064C0.0340934 12.4817 0.0668059 12.5527 0.112347 12.6153C0.157888 12.6779 0.215358 12.7308 0.281449 12.7711L4.2311 15.1773C4.4162 15.292 4.62956 15.3529 4.84732 15.3533C4.97355 15.3499 5.0984 15.3261 5.21705 15.2829L6.11497 15.8698C5.85059 16.2057 5.69865 16.6164 5.68068 17.0435C5.67365 17.3186 5.72198 17.5924 5.8228 17.8484C5.92361 18.1045 6.07486 18.3377 6.26755 18.5342C6.56137 18.8388 6.94301 19.044 7.35914 19.1211C7.27777 19.4224 7.26537 19.7383 7.32286 20.0451C7.38035 20.352 7.50624 20.6419 7.6912 20.8934C7.87615 21.1449 8.1154 21.3515 8.39117 21.4978C8.66694 21.6441 8.97214 21.7264 9.28408 21.7385H9.36037C9.66994 21.737 9.97506 21.6647 10.2524 21.5272C10.337 21.8691 10.5065 22.184 10.7454 22.4428C11.0907 22.8149 11.5625 23.0447 12.0685 23.0871C12.5744 23.1294 13.0779 22.9812 13.4802 22.6716C13.5731 22.9803 13.7358 23.2634 13.9556 23.4991C14.3282 23.8965 14.8431 24.1301 15.3875 24.1488C15.9319 24.1675 16.4616 23.9698 16.8606 23.5989L17.5003 23.012L18.5801 23.7163C18.8763 23.9099 19.2174 24.0238 19.5705 24.0468C19.9236 24.0699 20.2766 24.0013 20.5954 23.8479C20.9142 23.6944 21.1879 23.4611 21.3901 23.1707C21.5923 22.8803 21.716 22.5427 21.7493 22.1904C21.9676 22.2698 22.1978 22.3115 22.43 22.3136C22.9785 22.3121 23.5043 22.0944 23.8932 21.7076C24.2822 21.3209 24.5029 20.7963 24.5076 20.2479C24.8198 20.2711 25.1333 20.2235 25.4246 20.1085C25.7159 19.9936 25.9774 19.8142 26.1896 19.584C26.4018 19.3537 26.5592 19.0784 26.6501 18.7788C26.7409 18.4791 26.7628 18.1628 26.7142 17.8534C27.0444 17.8006 27.3569 17.6681 27.6245 17.4675C27.892 17.2669 28.1068 17.0041 28.2501 16.7019C28.3933 16.3998 28.4609 16.0672 28.4469 15.7331C28.4329 15.3989 28.3377 15.0732 28.1696 14.7841L30.0594 13.6925C30.1425 13.7257 30.2291 13.7494 30.3176 13.7629H30.4878C30.7418 13.7629 30.9889 13.6805 31.192 13.5282L34.9774 10.6936C35.0994 10.6013 35.1807 10.465 35.2037 10.3137C35.2267 10.1624 35.1897 10.0081 35.1006 9.88368ZM19.4252 5.54082L23.5979 5.37649L26.7494 9.58437L29.1849 12.8415L27.2717 13.9448L25.5933 12.8591C25.1238 12.5598 24.6484 12.237 24.1848 11.8908C23.8327 11.6267 23.4864 11.3509 23.1225 11.0457L20.3466 8.69819C19.9196 8.33261 19.3867 8.11319 18.8261 8.07201C18.2654 8.03083 17.7062 8.17005 17.2303 8.46931L13.6445 10.7112C13.3706 10.8668 13.0461 10.9073 12.7423 10.8236C12.4385 10.74 12.1804 10.5391 12.0248 10.2651C11.8691 9.9912 11.8287 9.66665 11.9123 9.36289C11.996 9.05912 12.1969 8.80103 12.4708 8.64538L16.2033 6.49155C17.1849 5.91939 18.2903 5.5932 19.4252 5.54082ZM4.14307 12.6244C3.91093 12.6244 3.684 12.5555 3.49097 12.4266C3.29795 12.2976 3.14751 12.1143 3.05867 11.8998C2.96983 11.6853 2.94659 11.4493 2.99188 11.2216C3.03717 10.994 3.14896 10.7848 3.31311 10.6207C3.47726 10.4565 3.6864 10.3447 3.91409 10.2994C4.14177 10.2541 4.37777 10.2774 4.59225 10.3662C4.80672 10.4551 4.99003 10.6055 5.11901 10.7985C5.24798 10.9916 5.31682 11.2185 5.31682 11.4506C5.31682 11.7619 5.19316 12.0605 4.97304 12.2806C4.75292 12.5007 4.45437 12.6244 4.14307 12.6244ZM6.85442 17.0905C6.8693 16.8659 6.97019 16.6557 7.13612 16.5036L7.42956 16.2278L8.51528 15.2184C8.67479 15.0697 8.8841 14.9859 9.10215 14.9836H9.13149C9.25187 14.9881 9.3701 15.017 9.47903 15.0684C9.58797 15.1198 9.68535 15.1928 9.76531 15.2829C9.92484 15.4534 10.0101 15.6802 10.0024 15.9135C9.99472 16.1468 9.89465 16.3675 9.72423 16.5271L8.35095 17.7889C8.26468 17.8691 8.16318 17.9312 8.05247 17.9715C7.94175 18.0118 7.82408 18.0295 7.70641 18.0234C7.58874 18.0174 7.47348 17.9878 7.36746 17.9365C7.26143 17.8851 7.1668 17.8129 7.08917 17.7243C7.00995 17.6395 6.94839 17.5398 6.90808 17.431C6.86778 17.3222 6.84954 17.2064 6.85442 17.0905ZM9.30755 20.6117C9.18717 20.6072 9.06895 20.5784 8.96001 20.5269C8.85108 20.4755 8.75369 20.4025 8.67373 20.3124C8.51421 20.142 8.42892 19.9151 8.43662 19.6818C8.44433 19.4485 8.54439 19.2278 8.71481 19.0682L9.34863 18.4814L10.5224 17.3663L11.8076 16.1926C11.9668 16.0434 12.1763 15.9596 12.3945 15.9578C12.5206 15.9589 12.6452 15.9861 12.7603 16.0376C12.8754 16.0891 12.9787 16.1638 13.0635 16.2571C13.2231 16.4276 13.3084 16.6544 13.3006 16.8877C13.2929 17.121 13.1929 17.3417 13.0225 17.5013L11.925 18.5283L10.7513 19.6023L9.88856 20.4063C9.72209 20.5335 9.51701 20.5998 9.30755 20.5941V20.6117ZM11.5611 21.6681C11.4016 21.4976 11.3163 21.2708 11.324 21.0375C11.3317 20.8042 11.4318 20.5835 11.6022 20.4239L13.4215 18.7279L14.5483 17.6773C14.7078 17.5287 14.9171 17.4449 15.1352 17.4426H15.1645C15.2849 17.4471 15.4032 17.476 15.5121 17.5274C15.621 17.5788 15.7184 17.6518 15.7984 17.7419C15.9579 17.9123 16.0432 18.1392 16.0355 18.3725C16.0278 18.6058 15.9277 18.8265 15.7573 18.9861L14.3018 20.3124L14.0143 20.5824L12.8405 21.6857C12.7555 21.7697 12.6543 21.8357 12.543 21.8796C12.4318 21.9235 12.3129 21.9444 12.1933 21.9411C12.0738 21.9378 11.9562 21.9104 11.8475 21.8604C11.7389 21.8105 11.6415 21.7391 11.5611 21.6505V21.6681ZM14.7713 22.7303C14.6118 22.5599 14.5265 22.3331 14.5342 22.0997C14.5419 21.8664 14.642 21.6457 14.8124 21.4862L15.1 21.2162L15.7279 20.6293C15.8875 20.4806 16.0968 20.3969 16.3148 20.3946H16.3442C16.4645 20.3991 16.5828 20.4279 16.6917 20.4794C16.8006 20.5308 16.898 20.6038 16.978 20.6939C17.1375 20.8643 17.2228 21.0911 17.2151 21.3245C17.2074 21.5578 17.1073 21.7785 16.9369 21.938L16.039 22.7773C15.9522 22.8577 15.8502 22.9199 15.739 22.9603C15.6278 23.0006 15.5097 23.0183 15.3915 23.0123C15.2734 23.0063 15.1577 22.9767 15.0511 22.9252C14.9446 22.8738 14.8495 22.8015 14.7713 22.7127V22.7303ZM27.1426 16.3334C27.0188 16.5197 26.831 16.6542 26.6147 16.7115C26.3985 16.7688 26.1687 16.745 25.9689 16.6445C25.9006 16.5862 25.828 16.5332 25.7517 16.486L22.7763 14.5669C22.7183 14.5271 22.6551 14.4955 22.5885 14.473C22.4647 14.4377 22.3328 14.444 22.2129 14.491C22.0931 14.538 21.9921 14.6231 21.9254 14.7331C21.8586 14.8432 21.83 14.9722 21.8437 15.1001C21.8575 15.2281 21.913 15.348 22.0016 15.4414C22.0948 15.5105 22.1952 15.5696 22.3009 15.6174L25.2353 17.56H25.2705C25.4128 17.7058 25.5009 17.896 25.5201 18.0989C25.5394 18.3017 25.4885 18.5051 25.3761 18.675C25.2418 18.8663 25.0402 18.9997 24.8117 19.0487C24.5832 19.0976 24.3446 19.0585 24.1437 18.9391L23.7564 18.6926C23.6881 18.6308 23.6156 18.5739 23.5392 18.5224L22.7704 18.0236L21.0098 16.8792C20.9001 16.8113 20.7712 16.7814 20.6428 16.7941C20.5144 16.8068 20.3939 16.8615 20.2997 16.9496C20.2769 16.9656 20.2553 16.9832 20.2351 17.0024C20.2197 17.0249 20.206 17.0484 20.194 17.0729C20.1681 17.1094 20.1465 17.1488 20.1295 17.1902C20.1259 17.2273 20.1259 17.2647 20.1295 17.3018C20.1074 17.3604 20.1074 17.425 20.1295 17.4837C20.1256 17.5227 20.1256 17.562 20.1295 17.6011C20.1451 17.6278 20.1627 17.6534 20.1823 17.6773C20.2019 17.715 20.2255 17.7504 20.2527 17.783C20.3384 17.8654 20.4329 17.9382 20.5344 18.0001L23.0462 19.6258C23.19 19.7694 23.2796 19.9583 23.2999 20.1605C23.3203 20.3626 23.27 20.5656 23.1578 20.735C23.0251 20.9298 22.8227 21.0664 22.5924 21.1167C22.362 21.1669 22.1212 21.1269 21.9195 21.0049L21.1565 20.5061H21.092C20.9995 20.4189 20.8993 20.3404 20.7927 20.2713L19.4663 19.4204C19.4017 19.3738 19.3282 19.3409 19.2504 19.3236C19.1726 19.3063 19.0921 19.3051 19.0138 19.32C18.9356 19.3348 18.8611 19.3655 18.7951 19.41C18.729 19.4546 18.6727 19.5122 18.6296 19.5792C18.5865 19.6462 18.5575 19.7213 18.5444 19.7999C18.5313 19.8785 18.5343 19.959 18.5533 20.0363C18.5723 20.1137 18.6068 20.1864 18.6548 20.2501C18.7028 20.3137 18.7633 20.3668 18.8325 20.4063L20.1588 21.2573C20.3585 21.386 20.499 21.5886 20.5496 21.8207C20.6002 22.0528 20.5567 22.2954 20.4288 22.4956C20.2934 22.6871 20.0912 22.821 19.8621 22.871C19.6329 22.9209 19.3933 22.8833 19.1905 22.7655L18.2163 22.1376C18.383 21.763 18.4352 21.3475 18.3663 20.9434C18.2974 20.5392 18.1104 20.1645 17.8289 19.8664C17.5907 19.6133 17.2917 19.4254 16.9604 19.3206C17.1196 19.0406 17.2101 18.7268 17.2245 18.4051C17.2381 18.0663 17.1682 17.7293 17.0208 17.4239C16.8734 17.1185 16.6531 16.8541 16.3794 16.654C16.1056 16.4539 15.7868 16.3243 15.4511 16.2766C15.1154 16.2288 14.7731 16.2645 14.4544 16.3804C14.3746 16.0111 14.1961 15.6703 13.938 15.3944C13.5749 15.0082 13.0766 14.7772 12.5472 14.7499C12.0179 14.7225 11.4984 14.9009 11.0975 15.2477C11.0049 14.9437 10.8444 14.6647 10.628 14.4319C10.4439 14.2345 10.2227 14.0753 9.97701 13.9634C9.73133 13.8515 9.46599 13.7891 9.19619 13.7799C8.92638 13.7706 8.6574 13.8146 8.40462 13.9094C8.15183 14.0041 7.92021 14.1478 7.723 14.3322L6.9718 15.0306L6.07388 14.4437L10.3581 7.78267L11.1855 6.49742L13.7326 6.40352H13.8323L14.0495 6.37418L11.8722 7.63009C11.6024 7.78654 11.3662 7.99459 11.1768 8.24235C10.9875 8.49012 10.8488 8.77275 10.7687 9.07412C10.6886 9.37548 10.6686 9.68967 10.7099 9.99875C10.7512 10.3078 10.853 10.6058 11.0095 10.8755C11.1659 11.1452 11.374 11.3815 11.6217 11.5709C11.8695 11.7602 12.1522 11.8989 12.4535 11.979C12.7549 12.0591 13.0691 12.0791 13.3782 12.0378C13.6872 11.9964 13.9851 11.8946 14.2549 11.7382L17.8583 9.4846C18.1228 9.31821 18.4336 9.24096 18.7452 9.2642C19.0568 9.28744 19.3527 9.40993 19.5896 9.61372L22.3655 11.9612C22.7469 12.284 23.1108 12.5774 23.4864 12.8533C23.9735 13.2171 24.4723 13.5634 24.9653 13.8744L26.8374 15.0482H26.8785C26.9816 15.1118 27.0707 15.1958 27.1402 15.295C27.2098 15.3942 27.2584 15.5066 27.2831 15.6252C27.3078 15.7438 27.3081 15.8662 27.284 15.985C27.2598 16.1037 27.2117 16.2163 27.1426 16.3158V16.3334Z" fill="#6A6A6A"/>
</svg>
