<svg width="22" height="23" viewBox="0 0 22 23" fill="none" xmlns="http://www.w3.org/2000/svg">
<path d="M0 10.1467C0 15.1983 4.11478 19.313 9.16636 19.313C11.3631 19.313 13.3823 18.533 14.9634 17.2381L20.4274 22.702C20.7876 23.0726 21.3821 23.0727 21.7379 22.7057C22.0935 22.3384 22.086 21.7585 21.7236 21.4059L16.2596 15.942C17.5536 14.3612 18.3328 12.3426 18.3328 10.1468C18.3328 5.09525 14.218 0.98051 9.16637 0.980469C4.11477 0.980428 -9.16667e-06 5.09517 0 10.1467ZM9.16636 2.81369C13.2272 2.81369 16.4995 6.08594 16.4995 10.1467C16.4995 14.2075 13.2272 17.4798 9.16636 17.4798C5.10556 17.4798 1.83327 14.2075 1.83327 10.1467C1.83326 6.08594 5.10555 2.81369 9.16636 2.81369Z" fill="#1F1F1F"/>
</svg>
