<svg width="35" height="42" viewBox="0 0 35 42" fill="none" xmlns="http://www.w3.org/2000/svg">
<path d="M20.9701 34.2923L22.7047 36.3449L29.543 30.572L23.8816 23.9178C23.4353 23.3916 22.8006 23.0613 22.1135 22.9975H9.61389C9.50511 22.9875 9.39707 22.9707 9.29038 22.9473H9.1119C8.83722 22.9242 8.56069 22.9555 8.29809 23.0393C8.03549 23.1231 7.79197 23.2578 7.58142 23.4357C7.15622 23.795 6.89116 24.3085 6.84456 24.8632C6.79796 25.418 6.97364 25.9685 7.33295 26.3937C7.69226 26.8189 8.20576 27.084 8.7605 27.1306L17.6848 27.8836C17.7419 27.8883 17.7976 27.9043 17.8485 27.9306C17.8995 27.9568 17.9448 27.9929 17.9818 28.0366C18.0189 28.0804 18.0469 28.131 18.0644 28.1856C18.0818 28.2402 18.0884 28.2977 18.0836 28.3549C18.0789 28.412 18.0629 28.4676 18.0366 28.5186C18.0104 28.5696 17.9743 28.6149 17.9306 28.6519C17.8868 28.6889 17.8362 28.717 17.7816 28.7344C17.727 28.7519 17.6694 28.7584 17.6123 28.7537L8.68799 28.0063C8.01284 27.9456 7.37871 27.656 6.89072 27.1855C6.40273 26.715 6.09018 26.0918 6.0049 25.4193C5.91962 24.7468 6.06672 24.0654 6.42182 23.488C6.77692 22.9106 7.31869 22.4718 7.95731 22.2445L7.81787 22.0939L4.72225 18.4294C4.50416 18.1484 4.23152 17.9145 3.92071 17.7416C3.60991 17.5687 3.26736 17.4605 2.91366 17.4233C2.55995 17.3862 2.20239 17.421 1.86246 17.5256C1.52254 17.6302 1.20726 17.8024 0.935595 18.0319C0.663926 18.2614 0.441468 18.5435 0.281593 18.8612C0.121717 19.1789 0.027726 19.5256 0.00526628 19.8806C-0.0171935 20.2355 0.0323421 20.5913 0.150897 20.9266C0.269452 21.2619 0.454579 21.5698 0.69515 21.8318L7.52225 30.7561C7.97299 31.2895 8.61685 31.6225 9.31269 31.682L19.1685 33.3887C19.8649 33.4396 20.5128 33.7646 20.9701 34.2923Z" fill="#606060"/>
<path d="M30.4239 31.2204L23.3722 37.1774C22.7604 37.6943 22.6834 38.6093 23.2003 39.2211L24.2909 40.5121C24.8077 41.124 25.7227 41.201 26.3346 40.6841L33.3863 34.7271C33.9981 34.2102 34.0751 33.2952 33.5582 32.6834L32.4676 31.3924C31.9508 30.7805 31.0358 30.7035 30.4239 31.2204Z" fill="#606060"/>
<path d="M22.722 8.91874C22.7154 8.11631 22.4564 7.33631 21.9816 6.68937C21.5069 6.04242 20.8404 5.56139 20.0769 5.31449C19.3134 5.06759 18.4915 5.06736 17.7278 5.31384C16.9642 5.56032 16.2975 6.04099 15.8223 6.68767C15.9508 6.7842 16.087 6.87001 16.2295 6.94424C16.6343 7.14802 17.0815 7.25314 17.5347 7.25101C17.6545 6.97434 17.8566 6.74129 18.1135 6.58358C18.3705 6.42587 18.6698 6.35115 18.9707 6.36961C19.2716 6.38806 19.5595 6.49879 19.7953 6.68671C20.031 6.87464 20.2032 7.13064 20.2882 7.41987C20.3733 7.70911 20.3672 8.01753 20.2707 8.30317C20.1743 8.5888 19.9921 8.83778 19.7491 9.01621C19.5061 9.19465 19.214 9.29387 18.9126 9.30038C18.6112 9.3069 18.3151 9.22038 18.0646 9.05261C17.9363 9.05261 17.808 9.05261 17.6797 9.0805H17.5403C16.7196 9.08121 15.9126 8.86986 15.1976 8.46695L15.1084 8.41117C14.9852 9.23439 15.1371 10.0752 15.5405 10.8033C15.9439 11.5315 16.5762 12.1061 17.3395 12.4383V15.3777V20.0686C17.3395 20.0686 18.6949 21.6805 18.9235 21.6805C19.1522 21.6805 20.2455 20.3084 20.2455 20.3084L20.5355 19.9737V19.9068L19.5929 18.6853L20.5355 17.4582V17.4192L19.5929 16.1976L20.5243 14.965V12.3992C21.1847 12.0894 21.7425 11.597 22.1319 10.9802C22.5213 10.3635 22.7261 9.64814 22.722 8.91874Z" fill="#606060"/>
<path d="M14.4671 8.11622C14.2894 7.96785 14.1622 7.76787 14.1033 7.544C14.0443 7.32014 14.0564 7.08347 14.138 6.86681C14.2399 7.00159 14.3498 7.13011 14.4671 7.25167C15.1242 7.92689 15.9845 8.36826 16.9162 8.50827C17.8479 8.64828 18.7999 8.47923 19.6265 8.02697C19.6684 7.88002 19.6653 7.72389 19.6175 7.57872C19.5698 7.43356 19.4797 7.30604 19.3587 7.21263C18.8455 7.52775 18.2594 7.70455 17.6575 7.72578C17.0846 7.74242 16.5171 7.61165 16.0092 7.346C15.5013 7.08035 15.0702 6.68872 14.7571 6.20864C14.9592 6.12209 15.1817 6.095 15.3986 6.13056C15.7683 5.67547 16.2229 5.29659 16.7372 5.01502C15.9873 4.47199 15.0654 4.22022 14.1436 4.30665C14.1291 3.86915 14.2021 3.43315 14.3582 3.02419C14.5143 2.61524 14.7504 2.24154 15.0527 1.92497C15.5775 1.37275 16.2706 1.01025 17.0235 0.894279C17.7764 0.778307 18.5465 0.915418 19.2131 1.28412C19.8797 1.65283 20.4052 2.23229 20.7071 2.93169C21.009 3.63108 21.0703 4.41089 20.8814 5.14888C21.1407 5.28351 21.3855 5.44424 21.6121 5.62856C21.7694 5.15595 21.843 4.65953 21.8297 4.16163C21.7861 3.03029 21.3009 1.96107 20.4782 1.18323C19.6556 0.405386 18.5609 -0.0191434 17.4288 0.000663181C16.3708 0.0435828 15.3651 0.472376 14.6016 1.20609C13.8381 1.9398 13.3696 2.92765 13.2846 3.98314C13.2752 4.14662 13.2752 4.3105 13.2846 4.47398C12.7723 4.64626 12.3024 4.92526 11.906 5.29256C11.5095 5.65987 11.1954 6.10711 10.9846 6.60474C10.7737 7.10238 10.6708 7.6391 10.6827 8.17943C10.6946 8.71977 10.821 9.25144 11.0535 9.73933L9.15154 11.9704L6.12285 15.5513C6.12285 15.5513 6.06149 17.6374 6.27902 17.7824C6.49655 17.9274 8.17544 17.5983 8.17544 17.5983L8.57146 17.5091L8.6105 17.4589L8.68301 15.9138L10.189 15.5848L10.228 15.5346L10.3005 13.9951L11.8065 13.666L13.4798 11.7361C14.1127 11.9003 14.7769 11.9003 15.4097 11.7361C15 11.2369 14.7035 10.6547 14.5408 10.0297C14.378 9.40473 14.3529 8.75187 14.4671 8.11622Z" fill="#606060"/>
</svg>
