<svg width="20" height="20" viewBox="0 0 20 20" xmlns="http://www.w3.org/2000/svg">
    <g clip-path="url(#clip0)">
        <path fill-rule="evenodd" clip-rule="evenodd" d="M5.16505 2.5103C4.4998 2.93495 3.89386 3.44464 3.36264 4.02441L3.59058 5.28293C3.72122 6.00442 3.31124 6.71452 2.62109 6.96209L2.28341 6.02078C2.51346 5.93826 2.65011 5.70156 2.60653 5.46106L2.37595 4.18777C2.3234 3.89757 2.39949 3.59713 2.59777 3.3789C3.20329 2.7127 3.89745 2.12861 4.66158 1.64529C4.91094 1.48753 5.22034 1.46474 5.49704 1.56699L6.7124 2.01569C6.94171 2.10033 7.19856 2.00683 7.31971 1.79461L7.96227 0.669691C8.10863 0.41347 8.36032 0.232068 8.65284 0.192601C9.09331 0.133295 9.54296 0.102692 9.99969 0.102692C10.4564 0.102692 10.9061 0.133295 11.3465 0.192601C11.6391 0.231963 11.8907 0.413365 12.0371 0.669691L12.6796 1.79461C12.8008 2.00683 13.0577 2.10033 13.287 2.01569L14.5022 1.56699C14.779 1.46484 15.0884 1.48764 15.3378 1.64529C16.102 2.12871 16.7961 2.7127 17.4016 3.3789C17.5999 3.59713 17.676 3.89767 17.6235 4.18777L17.393 5.46106C17.3494 5.70156 17.486 5.93826 17.7161 6.02078L18.9373 6.45893C19.2148 6.55844 19.4369 6.77435 19.5266 7.05506C19.8337 8.01589 19.9995 9.03992 19.9995 10.1028C19.9995 10.1487 19.9789 10.1921 19.9436 10.2215L18.6467 11.2994C18.4588 11.4556 18.4113 11.7248 18.5345 11.9359L19.1884 13.0565C19.337 13.3112 19.3684 13.6193 19.2566 13.8921C18.9118 14.7334 18.4557 15.5175 17.9064 16.2257C17.726 16.4584 17.4435 16.5852 17.149 16.5838L15.8546 16.5778C15.6102 16.5767 15.4008 16.7524 15.3593 16.9932L15.1401 18.2712C15.0903 18.5613 14.9166 18.8174 14.6562 18.9546C13.8679 19.3702 13.0172 19.6835 12.1218 19.8771C11.8343 19.9392 11.5367 19.8548 11.312 19.6645L10.3226 18.8264C10.1361 18.6686 9.86271 18.6686 9.67625 18.8264L8.68682 19.6645C8.46226 19.8547 8.16467 19.9392 7.877 19.8771C6.9817 19.6835 6.13115 19.3702 5.34276 18.9546C5.08231 18.8174 4.90862 18.5613 4.85881 18.2712L4.63952 16.9932C4.59815 16.7523 4.38879 16.5766 4.14438 16.5778L2.84988 16.5838C2.55535 16.5851 2.27296 16.4584 2.09251 16.2257C1.54334 15.5175 1.08715 14.7336 0.742387 13.8921C0.630633 13.6193 0.661975 13.311 0.810557 13.0565L1.46441 11.9359C1.58756 11.7249 1.54007 11.4557 1.35212 11.2994L0.0559296 10.2214C0.0205779 10.1921 0 10.1487 0 10.1028C0 9.03992 0.165784 8.01589 0.472869 7.05506C0.562568 6.77435 0.784809 6.55844 1.06214 6.45893L2.28341 6.02078L2.62109 6.96209L1.41418 7.39507C1.18254 8.13038 1.04261 8.90717 1.00832 9.71266L1.99194 10.5304L1.36416 11.2856L1.99194 10.5304C2.55577 10.999 2.69813 11.8066 2.32868 12.4399L1.68243 13.5473C1.98603 14.2795 2.38376 14.9634 2.86085 15.5838L4.14037 15.5778C4.87358 15.5745 5.50168 16.1016 5.62568 16.8242L5.84232 18.0871C6.53163 18.447 7.27317 18.7199 8.0526 18.8918L9.03052 18.0634C9.59003 17.5896 10.41 17.5896 10.9695 18.0635L11.9474 18.8918C12.7268 18.7199 13.4683 18.447 14.1576 18.0871L14.3742 16.8242C14.4982 16.1016 15.1264 15.5745 15.8596 15.5778L17.1392 15.5838C17.6161 14.9634 18.014 14.2795 18.3176 13.5473L17.6713 12.4399C17.3018 11.8068 17.4441 10.9991 18.0081 10.5304L18.9917 9.71266C18.9574 8.90717 18.8175 8.13038 18.5858 7.39507L17.3789 6.96209C16.6888 6.71452 16.2787 6.00432 16.4094 5.28293L16.6374 4.02441C16.1061 3.44475 15.5003 2.93495 14.835 2.5103L13.6337 2.95383C12.9459 3.20773 12.1754 2.92735 11.8117 2.2907L11.1767 1.17897C10.7921 1.12884 10.3993 1.10288 10 1.10288C9.60069 1.10288 9.20802 1.12884 8.82327 1.17897L8.18831 2.2907C7.82466 2.92735 7.0541 3.20784 6.36627 2.95383L5.16505 2.5103Z" fill="black"/>
        <path fill-rule="evenodd" clip-rule="evenodd" d="M9.99999 13.1027C11.6569 13.1027 13 11.7597 13 10.1027C13 8.4457 11.657 7.10265 9.99999 7.10265C8.34299 7.10265 6.99995 8.44591 6.99995 10.1028C6.99995 11.7597 8.3431 13.1027 9.99999 13.1027ZM9.99999 14.1027C12.2091 14.1027 14 12.3118 14 10.1027C14 7.89358 12.2091 6.10268 9.99999 6.10268C7.79088 6.10268 5.99997 7.89358 5.99997 10.1027C5.99997 12.3118 7.79088 14.1027 9.99999 14.1027Z" fill="black"/>
    </g>
    <defs>
        <clipPath id="clip0">
            <rect width="20" height="20" fill="white"/>
        </clipPath>
    </defs>
</svg>
