<svg width="22" height="22" viewBox="0 0 22 22" fill="none" xmlns="http://www.w3.org/2000/svg">
<path d="M19.25 1.8335H13.75C13.5069 1.8335 13.2737 1.93007 13.1018 2.10198C12.9299 2.27389 12.8333 2.50705 12.8333 2.75016C12.8333 2.99328 12.9299 3.22644 13.1018 3.39834C13.2737 3.57025 13.5069 3.66683 13.75 3.66683H17.0372L9.43524 11.2687C9.34769 11.3533 9.27786 11.4545 9.22982 11.5663C9.18178 11.6781 9.15649 11.7984 9.15543 11.9201C9.15437 12.0418 9.17757 12.1625 9.22366 12.2752C9.26975 12.3879 9.33781 12.4902 9.42388 12.5763C9.50995 12.6623 9.6123 12.7304 9.72495 12.7765C9.83761 12.8226 9.95831 12.8458 10.08 12.8447C10.2017 12.8437 10.322 12.8184 10.4339 12.7703C10.5457 12.7223 10.6469 12.6525 10.7314 12.5649L18.3333 4.963V8.25016C18.3333 8.49328 18.4299 8.72644 18.6018 8.89834C18.7737 9.07025 19.0069 9.16683 19.25 9.16683C19.4931 9.16683 19.7263 9.07025 19.8982 8.89834C20.0701 8.72644 20.1667 8.49328 20.1667 8.25016V2.75016C20.1667 2.50705 20.0701 2.27389 19.8982 2.10198C19.7263 1.93007 19.4931 1.8335 19.25 1.8335Z" fill="white"/>
<path d="M17.4167 9.70575C17.1736 9.70575 16.9404 9.80233 16.7685 9.97423C16.5966 10.1461 16.5 10.3793 16.5 10.6224V17.1885C16.4998 17.4921 16.3791 17.7831 16.1644 17.9978C15.9498 18.2125 15.6587 18.3332 15.3551 18.3334H4.81162C4.50805 18.3332 4.21697 18.2125 4.00231 17.9978C3.78765 17.7831 3.66695 17.4921 3.66671 17.1885V6.645C3.66695 6.34142 3.78765 6.05035 4.00231 5.83569C4.21697 5.62103 4.50805 5.50032 4.81162 5.50008H10.5151C10.7582 5.50008 10.9914 5.4035 11.1633 5.2316C11.3352 5.05969 11.4318 4.82653 11.4318 4.58341C11.4318 4.3403 11.3352 4.10714 11.1633 3.93523C10.9914 3.76333 10.7582 3.66675 10.5151 3.66675H4.81162C4.02204 3.66772 3.26507 3.98181 2.70675 4.54013C2.14843 5.09845 1.83434 5.85542 1.83337 6.645V17.1867C1.83386 17.9766 2.14774 18.734 2.70611 19.2927C3.26448 19.8514 4.02172 20.1658 4.81162 20.1667H15.3533C16.1432 20.1663 16.9006 19.8524 17.4593 19.294C18.0181 18.7356 18.3324 17.9784 18.3334 17.1885V10.6224C18.3334 10.3793 18.2368 10.1461 18.0649 9.97423C17.893 9.80233 17.6598 9.70575 17.4167 9.70575Z" fill="white"/>
</svg>
