<svg width="24" height="23" viewBox="0 0 24 23" xmlns="http://www.w3.org/2000/svg">
    <path d="M2.3522 20.5388H6.67616C6.81951 20.5388 6.95699 20.4819 7.05835 20.3805C7.15971 20.2792 7.21666 20.1417 7.21666 19.9983V8.10743C7.21666 7.96408 7.15971 7.8266 7.05835 7.72524C6.95699 7.62388 6.81951 7.56693 6.67616 7.56693H2.3522C2.20885 7.56693 2.07137 7.62388 1.97001 7.72524C1.86865 7.8266 1.8117 7.96408 1.8117 8.10743V19.9983C1.8117 20.1417 1.86865 20.2792 1.97001 20.3805C2.07137 20.4819 2.20885 20.5388 2.3522 20.5388ZM2.8927 8.64793H6.13567V19.4578H2.8927V8.64793ZM9.91914 20.5388H14.2431C14.3865 20.5388 14.5239 20.4819 14.6253 20.3805C14.7267 20.2792 14.7836 20.1417 14.7836 19.9983V0.540495C14.7836 0.397147 14.7267 0.25967 14.6253 0.158308C14.5239 0.056945 14.3865 0 14.2431 0H9.91914C9.77579 0 9.63831 0.056945 9.53695 0.158308C9.43559 0.25967 9.37864 0.397147 9.37864 0.540495V19.9983C9.37864 20.1417 9.43559 20.2792 9.53695 20.3805C9.63831 20.4819 9.77579 20.5388 9.91914 20.5388ZM10.4596 1.08099H13.7026V19.4578H10.4596V1.08099ZM17.4861 20.5388H21.81C21.9534 20.5388 22.0909 20.4819 22.1922 20.3805C22.2936 20.2792 22.3505 20.1417 22.3505 19.9983V12.4314C22.3505 12.288 22.2936 12.1506 22.1922 12.0492C22.0909 11.9478 21.9534 11.8909 21.81 11.8909H17.4861C17.3427 11.8909 17.2052 11.9478 17.1039 12.0492C17.0025 12.1506 16.9456 12.288 16.9456 12.4314V19.9983C16.9456 20.1417 17.0025 20.2792 17.1039 20.3805C17.2052 20.4819 17.3427 20.5388 17.4861 20.5388ZM18.0266 12.9719H21.2695V19.4578H18.0266V12.9719ZM23.4315 22.1603C23.4315 22.3037 23.3746 22.4411 23.2732 22.5425C23.1719 22.6439 23.0344 22.7008 22.891 22.7008H1.27121C1.12786 22.7008 0.990383 22.6439 0.88902 22.5425C0.787658 22.4411 0.730713 22.3037 0.730713 22.1603C0.730713 22.017 0.787658 21.8795 0.88902 21.7781C0.990383 21.6768 1.12786 21.6198 1.27121 21.6198H22.891C23.0344 21.6198 23.1719 21.6768 23.2732 21.7781C23.3746 21.8795 23.4315 22.017 23.4315 22.1603Z" fill="#959595"/>
</svg>
