<svg width="8" height="15" viewBox="0 0 8 15" fill="none" xmlns="http://www.w3.org/2000/svg">
<path d="M0.157638 0.914393C0.107688 0.864851 0.0680408 0.80591 0.0409851 0.740969C0.0139294 0.676027 0 0.606371 0 0.536019C0 0.465668 0.0139294 0.396011 0.0409851 0.33107C0.0680408 0.266129 0.107688 0.207188 0.157638 0.157645C0.20718 0.107696 0.266121 0.0680485 0.331062 0.0409927C0.396004 0.013937 0.46566 7.62939e-06 0.536012 7.62939e-06C0.606364 7.62939e-06 0.676019 0.013937 0.740961 0.0409927C0.805902 0.0680485 0.864843 0.107696 0.914385 0.157645L7.84236 7.08562C7.89231 7.13517 7.93196 7.19411 7.95901 7.25905C7.98607 7.32399 8 7.39365 8 7.464C8 7.53435 7.98607 7.60401 7.95901 7.66895C7.93196 7.73389 7.89231 7.79283 7.84236 7.84237L0.914385 14.7704C0.814034 14.8707 0.677929 14.9271 0.536012 14.9271C0.394094 14.9271 0.257989 14.8707 0.157638 14.7704C0.0572872 14.67 0.000909805 14.5339 0.000909805 14.392C0.000909805 14.2501 0.0572872 14.114 0.157638 14.0136L6.71257 7.464L0.157638 0.914393Z" fill="#3A3A3A"/>
</svg>
