<svg width="16" height="16" viewBox="0 0 16 16" fill="none" xmlns="http://www.w3.org/2000/svg">
<path d="M7.66667 0C6.15035 0 4.66808 0.449642 3.4073 1.29207C2.14652 2.13449 1.16387 3.33186 0.583594 4.73276C0.00332185 6.13366 -0.148504 7.67517 0.147316 9.16236C0.443137 10.6496 1.17332 12.0156 2.24552 13.0878C3.31772 14.16 4.68379 14.8902 6.17098 15.186C7.65817 15.4818 9.19968 15.33 10.6006 14.7497C12.0015 14.1695 13.1988 13.1868 14.0413 11.926C14.8837 10.6653 15.3333 9.18299 15.3333 7.66667C15.3333 6.65987 15.135 5.66293 14.7498 4.73276C14.3645 3.8026 13.7997 2.95743 13.0878 2.24552C12.3759 1.5336 11.5307 0.968877 10.6006 0.583591C9.67042 0.198304 8.67347 0 7.66667 0ZM11.2777 5.911L6.67767 10.511C6.6064 10.5829 6.52161 10.6399 6.42818 10.6788C6.33476 10.7177 6.23455 10.7378 6.13334 10.7378C6.03213 10.7378 5.93192 10.7177 5.8385 10.6788C5.74507 10.6399 5.66028 10.5829 5.58901 10.511L4.05567 8.97767C3.98419 8.90619 3.92749 8.82133 3.8888 8.72793C3.85011 8.63453 3.8302 8.53443 3.8302 8.43334C3.8302 8.33224 3.85011 8.23214 3.8888 8.13875C3.92749 8.04535 3.98419 7.96049 4.05567 7.889C4.12715 7.81752 4.21202 7.76082 4.30541 7.72213C4.39881 7.68344 4.49891 7.66353 4.60001 7.66353C4.7011 7.66353 4.8012 7.68344 4.8946 7.72213C4.98799 7.76082 5.07286 7.81752 5.14434 7.889L6.13334 8.88567L10.189 4.82234C10.3334 4.67797 10.5292 4.59686 10.7333 4.59686C10.9375 4.59686 11.1333 4.67797 11.2777 4.82234C11.422 4.9667 11.5031 5.1625 11.5031 5.36667C11.5031 5.57083 11.422 5.76664 11.2777 5.911Z" fill="white"/>
</svg>
